<svg width="21" height="21" viewBox="0 0 21 21" fill="none" xmlns="http://www.w3.org/2000/svg">
<path fill-rule="evenodd" clip-rule="evenodd" d="M16.6874 16.6861C14.0133 19.3606 10.0536 19.9384 6.81311 18.4398C6.33474 18.2472 5.94255 18.0915 5.5697 18.0915C4.53118 18.0977 3.23852 19.1046 2.56669 18.4336C1.89486 17.7617 2.9026 16.468 2.9026 15.4232C2.9026 15.0503 2.75311 14.6651 2.56053 14.1858C1.06123 10.9459 1.63985 6.98485 4.31398 4.31131C7.72765 0.896378 13.2738 0.896378 16.6874 4.31043C20.1073 7.73063 20.1011 13.2721 16.6874 16.6861Z" stroke="#706F88" stroke-width="1.5" stroke-linecap="round" stroke-linejoin="round"/>
<path d="M13.9473 10.8613H13.9563" stroke="#706F88" stroke-width="2" stroke-linecap="round" stroke-linejoin="round"/>
<path d="M10.4395 10.8613H10.4485" stroke="#706F88" stroke-width="2" stroke-linecap="round" stroke-linejoin="round"/>
<path d="M6.93164 10.8613H6.94064" stroke="#706F88" stroke-width="2" stroke-linecap="round" stroke-linejoin="round"/>
</svg>
