<svg width="17" height="15" viewBox="0 0 17 15" fill="none" xmlns="http://www.w3.org/2000/svg">
<path fill-rule="evenodd" clip-rule="evenodd" d="M8.79607 2.14749C5.20234 2.14749 2.54203 4.54983 2.54203 7.2289C2.54203 8.80336 3.43401 10.2559 4.92012 11.2127C5.49706 11.5848 5.65419 12.3095 5.67999 12.9498C6.26865 12.7074 6.66344 12.0429 7.37796 12.179C7.83294 12.265 8.30747 12.3103 8.79607 12.3103C12.3898 12.3103 15.0501 9.90798 15.0501 7.2289C15.0501 4.54983 12.3898 2.14749 8.79607 2.14749ZM0.978516 7.2289C0.978516 3.43192 4.61837 0.583984 8.79607 0.583984C12.9738 0.583984 16.6136 3.43192 16.6136 7.2289C16.6136 11.0259 12.9738 13.8738 8.79607 13.8738C8.28558 13.8738 7.78604 13.8324 7.30213 13.7526C7.22943 13.8097 7.10435 13.9129 6.95034 14.0216C6.50552 14.3351 5.8637 14.6556 4.88729 14.6556C4.67996 14.6556 4.48111 14.5732 4.33451 14.4266C4.1879 14.28 4.10554 14.0812 4.10554 13.8738C4.10554 13.4439 4.21733 12.9091 4.03205 12.5011C2.21134 11.312 0.978516 9.41625 0.978516 7.2289Z" fill="#4C4C4C"/>
</svg>
