<svg width="25" height="25" viewBox="0 0 25 25" fill="none" xmlns="http://www.w3.org/2000/svg">
<g filter="url(#filter0_i_3133_191)">
<path d="M16.5242 13.5524C19.12 13.5524 21.2243 11.4481 21.2243 8.85237C21.2243 6.25662 19.12 4.15234 16.5242 4.15234C13.9285 4.15234 11.8242 6.25662 11.8242 8.85237C11.8242 11.4481 13.9285 13.5524 16.5242 13.5524Z" fill="url(#paint0_radial_3133_191)"/>
<path d="M16.5242 13.5524C19.12 13.5524 21.2243 11.4481 21.2243 8.85237C21.2243 6.25662 19.12 4.15234 16.5242 4.15234C13.9285 4.15234 11.8242 6.25662 11.8242 8.85237C11.8242 11.4481 13.9285 13.5524 16.5242 13.5524Z" fill="url(#paint1_radial_3133_191)"/>
<path d="M16.5242 13.5524C19.12 13.5524 21.2243 11.4481 21.2243 8.85237C21.2243 6.25662 19.12 4.15234 16.5242 4.15234C13.9285 4.15234 11.8242 6.25662 11.8242 8.85237C11.8242 11.4481 13.9285 13.5524 16.5242 13.5524Z" fill="url(#paint2_radial_3133_191)"/>
</g>
<path d="M13.5096 5.24609C13.0211 5.65362 12.6204 6.15608 12.3318 6.72303C12.0432 7.28997 11.8727 7.90961 11.8306 8.54439C11.7885 9.17918 11.8758 9.8159 12.087 10.416C12.2983 11.016 12.6292 11.567 13.0596 12.0354C13.4901 12.5038 14.0112 12.88 14.5913 13.1411C15.1714 13.4022 15.7985 13.5428 16.4346 13.5544C17.0707 13.566 17.7025 13.4484 18.2917 13.2086C18.881 12.9688 19.4155 12.6119 19.8627 12.1595L13.5096 5.24609Z" fill="url(#paint3_linear_3133_191)"/>
<path d="M12.8597 4.65526C12.9568 4.56451 13.0709 4.4938 13.1954 4.44715C13.3199 4.40051 13.4524 4.37885 13.5853 4.38341C13.7182 4.38797 13.8488 4.41866 13.9699 4.47373C14.0909 4.5288 14.1999 4.60717 14.2906 4.70436L20.5147 11.371C20.69 11.5685 20.7812 11.8267 20.7688 12.0905C20.7564 12.3542 20.6415 12.6027 20.4484 12.7829C20.2554 12.9632 19.9996 13.0608 19.7356 13.0551C19.4716 13.0493 19.2203 12.9406 19.0353 12.7522L12.8112 6.08491C12.6281 5.88869 12.5305 5.62781 12.5397 5.3596C12.5489 5.0914 12.6642 4.83783 12.8603 4.65463" fill="url(#paint4_linear_3133_191)"/>
<path d="M12.8597 4.65526C12.9568 4.56451 13.0709 4.4938 13.1954 4.44715C13.3199 4.40051 13.4524 4.37885 13.5853 4.38341C13.7182 4.38797 13.8488 4.41866 13.9699 4.47373C14.0909 4.5288 14.1999 4.60717 14.2906 4.70436L20.5147 11.371C20.69 11.5685 20.7812 11.8267 20.7688 12.0905C20.7564 12.3542 20.6415 12.6027 20.4484 12.7829C20.2554 12.9632 19.9996 13.0608 19.7356 13.0551C19.4716 13.0493 19.2203 12.9406 19.0353 12.7522L12.8112 6.08491C12.6281 5.88869 12.5305 5.62781 12.5397 5.3596C12.5489 5.0914 12.6642 4.83783 12.8603 4.65463" fill="url(#paint5_radial_3133_191)"/>
<g filter="url(#filter1_i_3133_191)">
<path d="M11.8372 9.32812L15.7534 13.4949L6.09338 20.567C5.8055 20.7777 5.45034 20.8754 5.0952 20.8418C4.74006 20.8081 4.4096 20.6454 4.16643 20.3843C3.92326 20.1233 3.78427 19.7822 3.7758 19.4255C3.76733 19.0689 3.88996 18.7216 4.12046 18.4493L11.8372 9.32812Z" fill="url(#paint6_linear_3133_191)"/>
<path d="M11.8372 9.32812L15.7534 13.4949L6.09338 20.567C5.8055 20.7777 5.45034 20.8754 5.0952 20.8418C4.74006 20.8081 4.4096 20.6454 4.16643 20.3843C3.92326 20.1233 3.78427 19.7822 3.7758 19.4255C3.76733 19.0689 3.88996 18.7216 4.12046 18.4493L11.8372 9.32812Z" fill="url(#paint7_radial_3133_191)"/>
</g>
<g filter="url(#filter2_f_3133_191)">
<path d="M11.1477 14.69C11.6327 14.69 12.0259 14.2968 12.0259 13.8118C12.0259 13.3268 11.6327 12.9336 11.1477 12.9336C10.6627 12.9336 10.2695 13.3268 10.2695 13.8118C10.2695 14.2968 10.6627 14.69 11.1477 14.69Z" fill="#8A858F"/>
</g>
<g filter="url(#filter3_ii_3133_191)">
<path d="M11.218 14.69C11.703 14.69 12.0962 14.2968 12.0962 13.8118C12.0962 13.3268 11.703 12.9336 11.218 12.9336C10.733 12.9336 10.3398 13.3268 10.3398 13.8118C10.3398 14.2968 10.733 14.69 11.218 14.69Z" fill="url(#paint8_linear_3133_191)"/>
</g>
<defs>
<filter id="filter0_i_3133_191" x="11.8242" y="4.15234" width="9.81039" height="9.80844" filterUnits="userSpaceOnUse" color-interpolation-filters="sRGB">
<feFlood flood-opacity="0" result="BackgroundImageFix"/>
<feBlend mode="normal" in="SourceGraphic" in2="BackgroundImageFix" result="shape"/>
<feColorMatrix in="SourceAlpha" type="matrix" values="0 0 0 0 0 0 0 0 0 0 0 0 0 0 0 0 0 0 127 0" result="hardAlpha"/>
<feOffset dx="0.41" dy="0.41"/>
<feGaussianBlur stdDeviation="0.41"/>
<feComposite in2="hardAlpha" operator="arithmetic" k2="-1" k3="1"/>
<feColorMatrix type="matrix" values="0 0 0 0 0.301961 0 0 0 0 0.290196 0 0 0 0 0.317647 0 0 0 1 0"/>
<feBlend mode="normal" in2="shape" result="effect1_innerShadow_3133_191"/>
</filter>
<filter id="filter1_i_3133_191" x="3.77539" y="9.32812" width="13.0035" height="12.1345" filterUnits="userSpaceOnUse" color-interpolation-filters="sRGB">
<feFlood flood-opacity="0" result="BackgroundImageFix"/>
<feBlend mode="normal" in="SourceGraphic" in2="BackgroundImageFix" result="shape"/>
<feColorMatrix in="SourceAlpha" type="matrix" values="0 0 0 0 0 0 0 0 0 0 0 0 0 0 0 0 0 0 127 0" result="hardAlpha"/>
<feOffset dx="1.025" dy="0.615"/>
<feGaussianBlur stdDeviation="0.82"/>
<feComposite in2="hardAlpha" operator="arithmetic" k2="-1" k3="1"/>
<feColorMatrix type="matrix" values="0 0 0 0 0.490196 0 0 0 0 0.490196 0 0 0 0 0.494118 0 0 0 1 0"/>
<feBlend mode="normal" in2="shape" result="effect1_innerShadow_3133_191"/>
</filter>
<filter id="filter2_f_3133_191" x="10.1465" y="12.8106" width="2.00186" height="2.00381" filterUnits="userSpaceOnUse" color-interpolation-filters="sRGB">
<feFlood flood-opacity="0" result="BackgroundImageFix"/>
<feBlend mode="normal" in="SourceGraphic" in2="BackgroundImageFix" result="shape"/>
<feGaussianBlur stdDeviation="0.0615" result="effect1_foregroundBlur_3133_191"/>
</filter>
<filter id="filter3_ii_3133_191" x="10.2168" y="12.9336" width="2.00186" height="1.75781" filterUnits="userSpaceOnUse" color-interpolation-filters="sRGB">
<feFlood flood-opacity="0" result="BackgroundImageFix"/>
<feBlend mode="normal" in="SourceGraphic" in2="BackgroundImageFix" result="shape"/>
<feColorMatrix in="SourceAlpha" type="matrix" values="0 0 0 0 0 0 0 0 0 0 0 0 0 0 0 0 0 0 127 0" result="hardAlpha"/>
<feOffset dx="-0.123"/>
<feGaussianBlur stdDeviation="0.0615"/>
<feComposite in2="hardAlpha" operator="arithmetic" k2="-1" k3="1"/>
<feColorMatrix type="matrix" values="0 0 0 0 0.862745 0 0 0 0 0.847059 0 0 0 0 0.882353 0 0 0 1 0"/>
<feBlend mode="normal" in2="shape" result="effect1_innerShadow_3133_191"/>
<feColorMatrix in="SourceAlpha" type="matrix" values="0 0 0 0 0 0 0 0 0 0 0 0 0 0 0 0 0 0 127 0" result="hardAlpha"/>
<feOffset dx="0.123"/>
<feGaussianBlur stdDeviation="0.1025"/>
<feComposite in2="hardAlpha" operator="arithmetic" k2="-1" k3="1"/>
<feColorMatrix type="matrix" values="0 0 0 0 0.584314 0 0 0 0 0.572549 0 0 0 0 0.6 0 0 0 1 0"/>
<feBlend mode="normal" in2="effect1_innerShadow_3133_191" result="effect2_innerShadow_3133_191"/>
</filter>
<radialGradient id="paint0_radial_3133_191" cx="0" cy="0" r="1" gradientUnits="userSpaceOnUse" gradientTransform="translate(16.3104 13.552) rotate(-88.24) scale(6.94862)">
<stop offset="0.189" stop-color="#512F70"/>
<stop offset="1" stop-color="#372D44"/>
</radialGradient>
<radialGradient id="paint1_radial_3133_191" cx="0" cy="0" r="1" gradientUnits="userSpaceOnUse" gradientTransform="translate(19.1044 7.31518) rotate(140.631) scale(3.96977 3.0967)">
<stop offset="0.125" stop-color="#6C6476"/>
<stop offset="1" stop-color="#6C6476" stop-opacity="0"/>
</radialGradient>
<radialGradient id="paint2_radial_3133_191" cx="0" cy="0" r="1" gradientUnits="userSpaceOnUse" gradientTransform="translate(16.2712 7.15769) rotate(82.6375) scale(6.44764 6.4027)">
<stop offset="0.911" stop-color="#513071" stop-opacity="0"/>
<stop offset="1" stop-color="#72538F"/>
</radialGradient>
<linearGradient id="paint3_linear_3133_191" x1="16.5873" y1="9.69368" x2="16.0365" y2="10.2055" gradientUnits="userSpaceOnUse">
<stop stop-color="#382A4B"/>
<stop offset="1" stop-color="#382A4B" stop-opacity="0"/>
</linearGradient>
<linearGradient id="paint4_linear_3133_191" x1="12.2201" y1="5.11166" x2="19.2235" y2="12.6659" gradientUnits="userSpaceOnUse">
<stop stop-color="#848286"/>
<stop offset="1" stop-color="#A89FB0"/>
</linearGradient>
<radialGradient id="paint5_radial_3133_191" cx="0" cy="0" r="1" gradientUnits="userSpaceOnUse" gradientTransform="translate(17.7674 8.72828) rotate(133.811) scale(1.44928 8.33193)">
<stop offset="0.161" stop-color="#C9C8CB"/>
<stop offset="1" stop-color="#A7A0AF" stop-opacity="0"/>
</radialGradient>
<linearGradient id="paint6_linear_3133_191" x1="11.6496" y1="16.2472" x2="8.44277" y2="13.0996" gradientUnits="userSpaceOnUse">
<stop stop-color="#ADA3B3"/>
<stop offset="1" stop-color="#949198"/>
</linearGradient>
<radialGradient id="paint7_radial_3133_191" cx="0" cy="0" r="1" gradientUnits="userSpaceOnUse" gradientTransform="translate(14.8557 11.9589) rotate(142.272) scale(12.0882 1.58156)">
<stop stop-color="#AEA6B5"/>
<stop offset="1" stop-color="#AEA6B5" stop-opacity="0"/>
</radialGradient>
<linearGradient id="paint8_linear_3133_191" x1="10.7075" y1="13.0966" x2="11.8878" y2="14.5918" gradientUnits="userSpaceOnUse">
<stop stop-color="#C0BAC6"/>
<stop offset="1" stop-color="#CDC4D4"/>
</linearGradient>
</defs>
</svg>
