<svg width="26" height="25" viewBox="0 0 26 25" fill="none" xmlns="http://www.w3.org/2000/svg">
<path d="M4.30391 14.8436C4.27552 14.838 4.24622 14.8387 4.21814 14.8457C4.19006 14.8527 4.16389 14.8659 4.14153 14.8843C4.11918 14.9027 4.10119 14.9259 4.08887 14.9521C4.07655 14.9783 4.07022 15.0069 4.07031 15.0358V18.1038C4.07036 18.398 4.15346 18.6862 4.31005 18.9352C4.46664 19.1843 4.69036 19.3841 4.95547 19.5116L11.8828 22.8444C12.3584 23.0732 12.8793 23.192 13.407 23.192C13.9348 23.192 14.4557 23.0732 14.9313 22.8444L21.8586 19.5116C22.1238 19.384 22.3476 19.1841 22.5042 18.9349C22.6608 18.6857 22.7439 18.3973 22.7438 18.103V15.0358C22.7439 15.0069 22.7375 14.9783 22.7252 14.9521C22.7129 14.9259 22.6949 14.9027 22.6725 14.8843C22.6502 14.8659 22.624 14.8527 22.5959 14.8457C22.5678 14.8387 22.5385 14.838 22.5102 14.8436L13.407 16.6444L4.30391 14.8436Z" fill="url(#paint0_linear_3094_10333)"/>
<path d="M13.393 9.30391L4.51797 13.4289C4.38313 13.4917 4.26902 13.5916 4.18902 13.717C4.10903 13.8424 4.06649 13.988 4.06641 14.1367V14.7602C4.06649 14.7896 4.07489 14.8184 4.09065 14.8433C4.10641 14.8682 4.12888 14.8881 4.15547 14.9008L12.3945 18.8383C12.71 18.9889 13.0551 19.0671 13.4047 19.0671C13.7543 19.0671 14.0994 18.9889 14.4148 18.8383L22.6539 14.9008C22.6805 14.8881 22.703 14.8682 22.7187 14.8433C22.7345 14.8184 22.7429 14.7896 22.743 14.7602V14.1375C22.743 13.9886 22.7004 13.8427 22.6202 13.7172C22.5401 13.5916 22.4257 13.4916 22.2906 13.4289L13.4172 9.30469V9.29297L13.4047 9.29922L13.3922 9.29297L13.393 9.30391Z" fill="url(#paint1_linear_3094_10333)"/>
<path d="M13.393 9.30391L4.51797 13.4289C4.38313 13.4917 4.26902 13.5916 4.18902 13.717C4.10903 13.8424 4.06649 13.988 4.06641 14.1367V14.7602C4.06649 14.7896 4.07489 14.8184 4.09065 14.8433C4.10641 14.8682 4.12888 14.8881 4.15547 14.9008L12.3945 18.8383C12.71 18.9889 13.0551 19.0671 13.4047 19.0671C13.7543 19.0671 14.0994 18.9889 14.4148 18.8383L22.6539 14.9008C22.6805 14.8881 22.703 14.8682 22.7187 14.8433C22.7345 14.8184 22.7429 14.7896 22.743 14.7602V14.1375C22.743 13.9886 22.7004 13.8427 22.6202 13.7172C22.5401 13.5916 22.4257 13.4916 22.2906 13.4289L13.4172 9.30469V9.29297L13.4047 9.29922L13.3922 9.29297L13.393 9.30391Z" fill="url(#paint2_linear_3094_10333)"/>
<path d="M13.393 9.30391L4.51797 13.4289C4.38313 13.4917 4.26902 13.5916 4.18902 13.717C4.10903 13.8424 4.06649 13.988 4.06641 14.1367V14.7602C4.06649 14.7896 4.07489 14.8184 4.09065 14.8433C4.10641 14.8682 4.12888 14.8881 4.15547 14.9008L12.3945 18.8383C12.71 18.9889 13.0551 19.0671 13.4047 19.0671C13.7543 19.0671 14.0994 18.9889 14.4148 18.8383L22.6539 14.9008C22.6805 14.8881 22.703 14.8682 22.7187 14.8433C22.7345 14.8184 22.7429 14.7896 22.743 14.7602V14.1375C22.743 13.9886 22.7004 13.8427 22.6202 13.7172C22.5401 13.5916 22.4257 13.4916 22.2906 13.4289L13.4172 9.30469V9.29297L13.4047 9.29922L13.3922 9.29297L13.393 9.30391Z" fill="url(#paint3_linear_3094_10333)"/>
<path d="M13.393 9.30391L4.51797 13.4289C4.38313 13.4917 4.26902 13.5916 4.18902 13.717C4.10903 13.8424 4.06649 13.988 4.06641 14.1367V14.7602C4.06649 14.7896 4.07489 14.8184 4.09065 14.8433C4.10641 14.8682 4.12888 14.8881 4.15547 14.9008L12.3945 18.8383C12.71 18.9889 13.0551 19.0671 13.4047 19.0671C13.7543 19.0671 14.0994 18.9889 14.4148 18.8383L22.6539 14.9008C22.6805 14.8881 22.703 14.8682 22.7187 14.8433C22.7345 14.8184 22.7429 14.7896 22.743 14.7602V14.1375C22.743 13.9886 22.7004 13.8427 22.6202 13.7172C22.5401 13.5916 22.4257 13.4916 22.2906 13.4289L13.4172 9.30469V9.29297L13.4047 9.29922L13.3922 9.29297L13.393 9.30391Z" fill="url(#paint4_linear_3094_10333)"/>
<path d="M13.393 9.30391L4.51797 13.4289C4.38313 13.4917 4.26902 13.5916 4.18902 13.717C4.10903 13.8424 4.06649 13.988 4.06641 14.1367V14.7602C4.06649 14.7896 4.07489 14.8184 4.09065 14.8433C4.10641 14.8682 4.12888 14.8881 4.15547 14.9008L12.3945 18.8383C12.71 18.9889 13.0551 19.0671 13.4047 19.0671C13.7543 19.0671 14.0994 18.9889 14.4148 18.8383L22.6539 14.9008C22.6805 14.8881 22.703 14.8682 22.7187 14.8433C22.7345 14.8184 22.7429 14.7896 22.743 14.7602V14.1375C22.743 13.9886 22.7004 13.8427 22.6202 13.7172C22.5401 13.5916 22.4257 13.4916 22.2906 13.4289L13.4172 9.30469V9.29297L13.4047 9.29922L13.3922 9.29297L13.393 9.30391Z" fill="url(#paint5_radial_3094_10333)"/>
<g filter="url(#filter0_f_3094_10333)">
<path d="M14.377 18.9141L22.459 15.0078" stroke="url(#paint6_linear_3094_10333)" stroke-width="0.164" stroke-linecap="round"/>
</g>
<g filter="url(#filter1_f_3094_10333)">
<path d="M13.2026 19.0156C9.90884 18.3086 9.4815 15.1766 9.67915 13.6992L17.2182 13.825C17.2518 15.85 15.9174 18.5867 13.2026 19.0156Z" fill="url(#paint7_linear_3094_10333)"/>
<path d="M13.2026 19.0156C9.90884 18.3086 9.4815 15.1766 9.67915 13.6992L17.2182 13.825C17.2518 15.85 15.9174 18.5867 13.2026 19.0156Z" fill="url(#paint8_radial_3094_10333)"/>
</g>
<g filter="url(#filter2_f_3094_10333)">
<path d="M7.1524 15.718C6.22974 15.4953 6.11021 14.5086 6.16568 14.043L8.27818 14.082C8.28755 14.7203 7.91255 15.5828 7.1524 15.718Z" fill="url(#paint9_linear_3094_10333)"/>
</g>
<path d="M4.51797 14.1438L12.7344 17.9625C12.9405 18.0582 13.165 18.1077 13.3922 18.1077C13.6194 18.1077 13.8439 18.0582 14.05 17.9625L22.2906 14.1438C22.4493 14.07 22.5786 13.9451 22.6578 13.7891C22.7135 13.8984 22.7427 14.0194 22.743 14.1422V14.7656C22.7429 14.7951 22.7345 14.8239 22.7187 14.8488C22.703 14.8737 22.6805 14.8936 22.6539 14.9063L14.4148 18.8438C14.0994 18.9944 13.7543 19.0726 13.4047 19.0726C13.0551 19.0726 12.71 18.9944 12.3945 18.8438L4.15547 14.9063C4.12888 14.8936 4.10641 14.8737 4.09065 14.8488C4.07489 14.8239 4.06649 14.7951 4.06641 14.7656V14.143C4.06641 14.018 4.09609 13.8969 4.15078 13.7891C4.22986 13.9454 4.35918 14.0698 4.51797 14.1438Z" fill="url(#paint10_linear_3094_10333)"/>
<g filter="url(#filter3_i_3094_10333)">
<path d="M9.66055 13.5595C9.64606 13.6162 9.63871 13.6745 9.63867 13.733C9.63867 14.6197 11.3355 15.3384 13.4293 15.3384C15.5223 15.3384 17.2191 14.6197 17.2191 13.733C17.2191 13.6745 17.2118 13.6162 17.1973 13.5595C17.0321 12.6809 16.5651 11.8876 15.877 11.3168C15.1889 10.746 14.3229 10.4336 13.4289 10.4336C12.5349 10.4336 11.669 10.746 10.9808 11.3168C10.2927 11.8876 9.82573 12.6809 9.66055 13.5595Z" fill="#4C2F5A"/>
<path d="M9.66055 13.5595C9.64606 13.6162 9.63871 13.6745 9.63867 13.733C9.63867 14.6197 11.3355 15.3384 13.4293 15.3384C15.5223 15.3384 17.2191 14.6197 17.2191 13.733C17.2191 13.6745 17.2118 13.6162 17.1973 13.5595C17.0321 12.6809 16.5651 11.8876 15.877 11.3168C15.1889 10.746 14.3229 10.4336 13.4289 10.4336C12.5349 10.4336 11.669 10.746 10.9808 11.3168C10.2927 11.8876 9.82573 12.6809 9.66055 13.5595Z" fill="url(#paint11_radial_3094_10333)"/>
<path d="M9.66055 13.5595C9.64606 13.6162 9.63871 13.6745 9.63867 13.733C9.63867 14.6197 11.3355 15.3384 13.4293 15.3384C15.5223 15.3384 17.2191 14.6197 17.2191 13.733C17.2191 13.6745 17.2118 13.6162 17.1973 13.5595C17.0321 12.6809 16.5651 11.8876 15.877 11.3168C15.1889 10.746 14.3229 10.4336 13.4289 10.4336C12.5349 10.4336 11.669 10.746 10.9808 11.3168C10.2927 11.8876 9.82573 12.6809 9.66055 13.5595Z" fill="url(#paint12_radial_3094_10333)"/>
<path d="M9.66055 13.5595C9.64606 13.6162 9.63871 13.6745 9.63867 13.733C9.63867 14.6197 11.3355 15.3384 13.4293 15.3384C15.5223 15.3384 17.2191 14.6197 17.2191 13.733C17.2191 13.6745 17.2118 13.6162 17.1973 13.5595C17.0321 12.6809 16.5651 11.8876 15.877 11.3168C15.1889 10.746 14.3229 10.4336 13.4289 10.4336C12.5349 10.4336 11.669 10.746 10.9808 11.3168C10.2927 11.8876 9.82573 12.6809 9.66055 13.5595Z" fill="url(#paint13_radial_3094_10333)"/>
<path d="M9.66055 13.5595C9.64606 13.6162 9.63871 13.6745 9.63867 13.733C9.63867 14.6197 11.3355 15.3384 13.4293 15.3384C15.5223 15.3384 17.2191 14.6197 17.2191 13.733C17.2191 13.6745 17.2118 13.6162 17.1973 13.5595C17.0321 12.6809 16.5651 11.8876 15.877 11.3168C15.1889 10.746 14.3229 10.4336 13.4289 10.4336C12.5349 10.4336 11.669 10.746 10.9808 11.3168C10.2927 11.8876 9.82573 12.6809 9.66055 13.5595Z" fill="url(#paint14_radial_3094_10333)"/>
</g>
<path d="M9.66055 13.5595C9.64606 13.6162 9.63871 13.6745 9.63867 13.733C9.63867 14.6197 11.3355 15.3384 13.4293 15.3384C15.5223 15.3384 17.2191 14.6197 17.2191 13.733C17.2191 13.6745 17.2118 13.6162 17.1973 13.5595C17.0321 12.6809 16.5651 11.8876 15.877 11.3168C15.1889 10.746 14.3229 10.4336 13.4289 10.4336C12.5349 10.4336 11.669 10.746 10.9808 11.3168C10.2927 11.8876 9.82573 12.6809 9.66055 13.5595Z" fill="url(#paint15_radial_3094_10333)"/>
<path d="M9.66055 13.5595C9.64606 13.6162 9.63871 13.6745 9.63867 13.733C9.63867 14.6197 11.3355 15.3384 13.4293 15.3384C15.5223 15.3384 17.2191 14.6197 17.2191 13.733C17.2191 13.6745 17.2118 13.6162 17.1973 13.5595C17.0321 12.6809 16.5651 11.8876 15.877 11.3168C15.1889 10.746 14.3229 10.4336 13.4289 10.4336C12.5349 10.4336 11.669 10.746 10.9808 11.3168C10.2927 11.8876 9.82573 12.6809 9.66055 13.5595Z" fill="url(#paint16_radial_3094_10333)"/>
<g filter="url(#filter4_f_3094_10333)">
<path d="M7.18867 13.3555C7.79023 13.3555 8.27852 13.6781 8.27852 14.2492C8.27852 14.5883 7.79023 14.7344 7.18867 14.7344C6.58711 14.7344 6.09961 14.6031 6.09961 14.25C6.09961 13.6781 6.58711 13.3555 7.18867 13.3555Z" fill="#50416C"/>
</g>
<path d="M7.18867 13.2617C7.76055 13.2617 8.22305 13.5844 8.22305 14.1555C8.22305 14.4945 7.76055 14.6406 7.18867 14.6406C6.61758 14.6406 6.1543 14.5094 6.1543 14.1563C6.1543 13.5844 6.61758 13.2617 7.18867 13.2617Z" fill="url(#paint17_radial_3094_10333)"/>
<path d="M7.18867 13.2617C7.76055 13.2617 8.22305 13.5844 8.22305 14.1555C8.22305 14.4945 7.76055 14.6406 7.18867 14.6406C6.61758 14.6406 6.1543 14.5094 6.1543 14.1563C6.1543 13.5844 6.61758 13.2617 7.18867 13.2617Z" fill="url(#paint18_radial_3094_10333)"/>
<path d="M7.18867 13.2617C7.76055 13.2617 8.22305 13.5844 8.22305 14.1555C8.22305 14.4945 7.76055 14.6406 7.18867 14.6406C6.61758 14.6406 6.1543 14.5094 6.1543 14.1563C6.1543 13.5844 6.61758 13.2617 7.18867 13.2617Z" fill="url(#paint19_radial_3094_10333)"/>
<path d="M12.623 7.70117C12.623 7.49552 12.7047 7.2983 12.8502 7.15289C12.9956 7.00747 13.1928 6.92578 13.3984 6.92578C13.6041 6.92578 13.8013 7.00747 13.9467 7.15289C14.0921 7.2983 14.1738 7.49552 14.1738 7.70117V10.9418C14.1738 11.3699 13.8262 11.5035 13.398 11.5035C12.9707 11.5035 12.623 11.3699 12.623 10.941V7.70117Z" fill="url(#paint20_linear_3094_10333)"/>
<path d="M12.623 7.70117C12.623 7.49552 12.7047 7.2983 12.8502 7.15289C12.9956 7.00747 13.1928 6.92578 13.3984 6.92578C13.6041 6.92578 13.8013 7.00747 13.9467 7.15289C14.0921 7.2983 14.1738 7.49552 14.1738 7.70117V10.9418C14.1738 11.3699 13.8262 11.5035 13.398 11.5035C12.9707 11.5035 12.623 11.3699 12.623 10.941V7.70117Z" fill="url(#paint21_radial_3094_10333)"/>
<path d="M12.623 7.70117C12.623 7.49552 12.7047 7.2983 12.8502 7.15289C12.9956 7.00747 13.1928 6.92578 13.3984 6.92578C13.6041 6.92578 13.8013 7.00747 13.9467 7.15289C14.0921 7.2983 14.1738 7.49552 14.1738 7.70117V10.9418C14.1738 11.3699 13.8262 11.5035 13.398 11.5035C12.9707 11.5035 12.623 11.3699 12.623 10.941V7.70117Z" fill="url(#paint22_radial_3094_10333)"/>
<path d="M13.4281 8.575C15.4034 8.575 17.0047 6.97372 17.0047 4.99844C17.0047 3.02316 15.4034 1.42188 13.4281 1.42188C11.4528 1.42188 9.85156 3.02316 9.85156 4.99844C9.85156 6.97372 11.4528 8.575 13.4281 8.575Z" fill="url(#paint23_radial_3094_10333)"/>
<path d="M13.4281 8.575C15.4034 8.575 17.0047 6.97372 17.0047 4.99844C17.0047 3.02316 15.4034 1.42188 13.4281 1.42188C11.4528 1.42188 9.85156 3.02316 9.85156 4.99844C9.85156 6.97372 11.4528 8.575 13.4281 8.575Z" fill="url(#paint24_radial_3094_10333)"/>
<path d="M13.4281 8.575C15.4034 8.575 17.0047 6.97372 17.0047 4.99844C17.0047 3.02316 15.4034 1.42188 13.4281 1.42188C11.4528 1.42188 9.85156 3.02316 9.85156 4.99844C9.85156 6.97372 11.4528 8.575 13.4281 8.575Z" fill="url(#paint25_radial_3094_10333)"/>
<g filter="url(#filter5_f_3094_10333)">
<path d="M22.4602 13.957L14.0125 17.9164C13.827 17.9893 13.629 18.0249 13.4297 18.0211" stroke="#7067A3" stroke-width="0.164" stroke-linecap="round"/>
</g>
<defs>
<filter id="filter0_f_3094_10333" x="14.1309" y="14.7618" width="8.57409" height="4.39831" filterUnits="userSpaceOnUse" color-interpolation-filters="sRGB">
<feFlood flood-opacity="0" result="BackgroundImageFix"/>
<feBlend mode="normal" in="SourceGraphic" in2="BackgroundImageFix" result="shape"/>
<feGaussianBlur stdDeviation="0.082" result="effect1_foregroundBlur_3094_10333"/>
</filter>
<filter id="filter1_f_3094_10333" x="9.02367" y="13.0842" width="8.81008" height="6.54641" filterUnits="userSpaceOnUse" color-interpolation-filters="sRGB">
<feFlood flood-opacity="0" result="BackgroundImageFix"/>
<feBlend mode="normal" in="SourceGraphic" in2="BackgroundImageFix" result="shape"/>
<feGaussianBlur stdDeviation="0.3075" result="effect1_foregroundBlur_3094_10333"/>
</filter>
<filter id="filter2_f_3094_10333" x="5.9493" y="13.838" width="2.535" height="2.08578" filterUnits="userSpaceOnUse" color-interpolation-filters="sRGB">
<feFlood flood-opacity="0" result="BackgroundImageFix"/>
<feBlend mode="normal" in="SourceGraphic" in2="BackgroundImageFix" result="shape"/>
<feGaussianBlur stdDeviation="0.1025" result="effect1_foregroundBlur_3094_10333"/>
</filter>
<filter id="filter3_i_3094_10333" x="9.63867" y="10.3516" width="7.58008" height="4.98825" filterUnits="userSpaceOnUse" color-interpolation-filters="sRGB">
<feFlood flood-opacity="0" result="BackgroundImageFix"/>
<feBlend mode="normal" in="SourceGraphic" in2="BackgroundImageFix" result="shape"/>
<feColorMatrix in="SourceAlpha" type="matrix" values="0 0 0 0 0 0 0 0 0 0 0 0 0 0 0 0 0 0 127 0" result="hardAlpha"/>
<feOffset dy="-0.082"/>
<feGaussianBlur stdDeviation="0.164"/>
<feComposite in2="hardAlpha" operator="arithmetic" k2="-1" k3="1"/>
<feColorMatrix type="matrix" values="0 0 0 0 0.14902 0 0 0 0 0.0862745 0 0 0 0 0.235294 0 0 0 1 0"/>
<feBlend mode="normal" in2="shape" result="effect1_innerShadow_3094_10333"/>
</filter>
<filter id="filter4_f_3094_10333" x="5.97661" y="13.2325" width="2.42569" height="1.62491" filterUnits="userSpaceOnUse" color-interpolation-filters="sRGB">
<feFlood flood-opacity="0" result="BackgroundImageFix"/>
<feBlend mode="normal" in="SourceGraphic" in2="BackgroundImageFix" result="shape"/>
<feGaussianBlur stdDeviation="0.0615" result="effect1_foregroundBlur_3094_10333"/>
</filter>
<filter id="filter5_f_3094_10333" x="13.2657" y="13.793" width="9.35931" height="4.39056" filterUnits="userSpaceOnUse" color-interpolation-filters="sRGB">
<feFlood flood-opacity="0" result="BackgroundImageFix"/>
<feBlend mode="normal" in="SourceGraphic" in2="BackgroundImageFix" result="shape"/>
<feGaussianBlur stdDeviation="0.041" result="effect1_foregroundBlur_3094_10333"/>
</filter>
<linearGradient id="paint0_linear_3094_10333" x1="5.14766" y1="18.9272" x2="21.6297" y2="18.9272" gradientUnits="userSpaceOnUse">
<stop stop-color="#2F2137"/>
<stop offset="0.448" stop-color="#38224A"/>
<stop offset="0.568" stop-color="#5D3E7D"/>
</linearGradient>
<linearGradient id="paint1_linear_3094_10333" x1="21.4492" y1="13.6625" x2="3.52969" y2="13.6625" gradientUnits="userSpaceOnUse">
<stop stop-color="#615D8D"/>
<stop offset="1" stop-color="#5E5681"/>
</linearGradient>
<linearGradient id="paint2_linear_3094_10333" x1="21.4492" y1="13.6625" x2="3.52969" y2="13.6625" gradientUnits="userSpaceOnUse">
<stop stop-color="#615D8D"/>
<stop offset="1" stop-color="#5E5681"/>
</linearGradient>
<linearGradient id="paint3_linear_3094_10333" x1="8.74766" y1="16.1523" x2="8.87578" y2="15.8898" gradientUnits="userSpaceOnUse">
<stop offset="0.269" stop-color="#4F3A84"/>
<stop offset="1" stop-color="#534177" stop-opacity="0"/>
</linearGradient>
<linearGradient id="paint4_linear_3094_10333" x1="17.6047" y1="16.4023" x2="17.425" y2="16.0242" gradientUnits="userSpaceOnUse">
<stop offset="0.338" stop-color="#6152A2"/>
<stop offset="1" stop-color="#5F5887" stop-opacity="0"/>
</linearGradient>
<radialGradient id="paint5_radial_3094_10333" cx="0" cy="0" r="1" gradientUnits="userSpaceOnUse" gradientTransform="translate(13.7328 8.86172) rotate(90) scale(4.41822 7.45573)">
<stop stop-color="#6D6F9E"/>
<stop offset="1" stop-color="#6D6F9E" stop-opacity="0"/>
</radialGradient>
<linearGradient id="paint6_linear_3094_10333" x1="21.6684" y1="15.5453" x2="14.8941" y2="18.9148" gradientUnits="userSpaceOnUse">
<stop offset="0.896" stop-color="#69597D"/>
<stop offset="1" stop-color="#69597D" stop-opacity="0"/>
</linearGradient>
<linearGradient id="paint7_linear_3094_10333" x1="13.4284" y1="14.4469" x2="13.4284" y2="19.0156" gradientUnits="userSpaceOnUse">
<stop stop-color="#4D4277"/>
<stop offset="1" stop-color="#4D4277" stop-opacity="0"/>
</linearGradient>
<radialGradient id="paint8_radial_3094_10333" cx="0" cy="0" r="1" gradientUnits="userSpaceOnUse" gradientTransform="translate(13.4281 14.1572) rotate(90) scale(1.85547 4.11914)">
<stop offset="0.329" stop-color="#281E45"/>
<stop offset="1" stop-color="#281E45" stop-opacity="0"/>
</radialGradient>
<linearGradient id="paint9_linear_3094_10333" x1="7.21568" y1="13.6797" x2="7.21568" y2="16.5688" gradientUnits="userSpaceOnUse">
<stop stop-color="#4D4277"/>
<stop offset="1" stop-color="#4D4277" stop-opacity="0"/>
</linearGradient>
<linearGradient id="paint10_linear_3094_10333" x1="21.5227" y1="16.5016" x2="3.43906" y2="16.5016" gradientUnits="userSpaceOnUse">
<stop offset="0.431" stop-color="#6052A1"/>
<stop offset="0.464" stop-color="#4E3A83"/>
</linearGradient>
<radialGradient id="paint11_radial_3094_10333" cx="0" cy="0" r="1" gradientUnits="userSpaceOnUse" gradientTransform="translate(13.7832 10.4318) rotate(94.126) scale(4.91998 9.39125)">
<stop offset="0.647" stop-color="#442A5D" stop-opacity="0"/>
<stop offset="1" stop-color="#442A5D"/>
</radialGradient>
<radialGradient id="paint12_radial_3094_10333" cx="0" cy="0" r="1" gradientUnits="userSpaceOnUse" gradientTransform="translate(16.6316 12.3048) rotate(151.174) scale(3.65595 2.37689)">
<stop stop-color="#6F5A85"/>
<stop offset="1" stop-color="#6F5A85" stop-opacity="0"/>
</radialGradient>
<radialGradient id="paint13_radial_3094_10333" cx="0" cy="0" r="1" gradientUnits="userSpaceOnUse" gradientTransform="translate(10.9804 10.4316) rotate(101.741) scale(4.39991 2.80362)">
<stop stop-color="#4A3947"/>
<stop offset="1" stop-color="#4A3947" stop-opacity="0"/>
</radialGradient>
<radialGradient id="paint14_radial_3094_10333" cx="0" cy="0" r="1" gradientUnits="userSpaceOnUse" gradientTransform="translate(13.2746 14.5572) rotate(-47.5718) scale(4.18862 4.28922)">
<stop offset="0.942" stop-color="#766F8B" stop-opacity="0.082"/>
<stop offset="0.991" stop-color="#766F8B"/>
</radialGradient>
<radialGradient id="paint15_radial_3094_10333" cx="0" cy="0" r="1" gradientUnits="userSpaceOnUse" gradientTransform="translate(9.48581 13.9591) rotate(-44.236) scale(3.8846 3.80266)">
<stop stop-color="#422E3D"/>
<stop offset="1" stop-color="#422E3D" stop-opacity="0"/>
</radialGradient>
<radialGradient id="paint16_radial_3094_10333" cx="0" cy="0" r="1" gradientUnits="userSpaceOnUse" gradientTransform="translate(14.2461 14.5694) rotate(-139.07) scale(4.62097 5.4773)">
<stop offset="0.934" stop-color="#50464D" stop-opacity="0"/>
<stop offset="1" stop-color="#50464D"/>
</radialGradient>
<radialGradient id="paint17_radial_3094_10333" cx="0" cy="0" r="1" gradientUnits="userSpaceOnUse" gradientTransform="translate(7.98555 14.1406) rotate(180) scale(1.68457 1.70899)">
<stop stop-color="#FF3389"/>
<stop offset="1" stop-color="#E13B63"/>
</radialGradient>
<radialGradient id="paint18_radial_3094_10333" cx="0" cy="0" r="1" gradientUnits="userSpaceOnUse" gradientTransform="translate(7.87773 14.1875) rotate(168.311) scale(0.883423 0.434471)">
<stop stop-color="#FF5EA3"/>
<stop offset="1" stop-color="#FF5EA3" stop-opacity="0"/>
</radialGradient>
<radialGradient id="paint19_radial_3094_10333" cx="0" cy="0" r="1" gradientUnits="userSpaceOnUse" gradientTransform="translate(7.68014 13.9519) rotate(166.189) scale(1.50846 1.48631)">
<stop offset="0.677" stop-color="#C52754" stop-opacity="0"/>
<stop offset="1" stop-color="#C52754"/>
</radialGradient>
<linearGradient id="paint20_linear_3094_10333" x1="12.8793" y1="10.1238" x2="14.2957" y2="10.1238" gradientUnits="userSpaceOnUse">
<stop stop-color="#DDB7F2"/>
<stop offset="1" stop-color="#F8EBFF"/>
</linearGradient>
<radialGradient id="paint21_radial_3094_10333" cx="0" cy="0" r="1" gradientUnits="userSpaceOnUse" gradientTransform="translate(13.5121 8.07773) scale(1.34301 0.736484)">
<stop stop-color="#BD7CD0"/>
<stop offset="1" stop-color="#BD7CD0" stop-opacity="0"/>
</radialGradient>
<radialGradient id="paint22_radial_3094_10333" cx="0" cy="0" r="1" gradientUnits="userSpaceOnUse" gradientTransform="translate(12.9809 7.78398) rotate(123.064) scale(2.48726 1.57338)">
<stop offset="0.18" stop-color="#B87EBA"/>
<stop offset="1" stop-color="#BD7CD0" stop-opacity="0"/>
</radialGradient>
<radialGradient id="paint23_radial_3094_10333" cx="0" cy="0" r="1" gradientUnits="userSpaceOnUse" gradientTransform="translate(15.6382 3.50876) rotate(142.722) scale(4.11143)">
<stop stop-color="#FF78AD"/>
<stop offset="1" stop-color="#FB426F"/>
</radialGradient>
<radialGradient id="paint24_radial_3094_10333" cx="0" cy="0" r="1" gradientUnits="userSpaceOnUse" gradientTransform="translate(15.4922 5) rotate(-180) scale(5.63965)">
<stop offset="0.543" stop-color="#CC515D" stop-opacity="0"/>
<stop offset="1" stop-color="#CC515D"/>
</radialGradient>
<radialGradient id="paint25_radial_3094_10333" cx="0" cy="0" r="1" gradientUnits="userSpaceOnUse" gradientTransform="translate(13.4281 3.07031) rotate(90) scale(5.76172)">
<stop offset="0.807" stop-color="#B8276B" stop-opacity="0"/>
<stop offset="1" stop-color="#B8276B"/>
</radialGradient>
</defs>
</svg>
