<svg width="26" height="25" viewBox="0 0 26 25" fill="none" xmlns="http://www.w3.org/2000/svg">
<path d="M12.9344 19.3766C13.0854 19.4597 13.2553 19.5021 13.4276 19.4999C13.5999 19.4977 13.7686 19.4509 13.9174 19.364C15.9747 18.19 19.5489 15.4874 20.9532 11.9764C23.0134 7.40519 18.1751 3.75589 14.8313 6.38049C14.4824 6.65432 14.0438 6.96718 13.7421 7.26455C13.6053 7.3983 13.3644 7.41208 13.2224 7.28349C12.8258 6.92298 12.2061 6.46029 11.8078 6.19163C8.95668 4.26508 3.76949 6.80415 5.98198 12.2233C6.79247 14.6556 10.6553 18.1062 12.9344 19.3766Z" fill="url(#paint0_radial_3133_194)"/>
<path d="M12.9344 19.3766C13.0854 19.4597 13.2553 19.5021 13.4276 19.4999C13.5999 19.4977 13.7686 19.4509 13.9174 19.364C15.9747 18.19 19.5489 15.4874 20.9532 11.9764C23.0134 7.40519 18.1751 3.75589 14.8313 6.38049C14.4824 6.65432 14.0438 6.96718 13.7421 7.26455C13.6053 7.3983 13.3644 7.41208 13.2224 7.28349C12.8258 6.92298 12.2061 6.46029 11.8078 6.19163C8.95668 4.26508 3.76949 6.80415 5.98198 12.2233C6.79247 14.6556 10.6553 18.1062 12.9344 19.3766Z" fill="url(#paint1_radial_3133_194)"/>
<path d="M12.9344 19.3766C13.0854 19.4597 13.2553 19.5021 13.4276 19.4999C13.5999 19.4977 13.7686 19.4509 13.9174 19.364C15.9747 18.19 19.5489 15.4874 20.9532 11.9764C23.0134 7.40519 18.1751 3.75589 14.8313 6.38049C14.4824 6.65432 14.0438 6.96718 13.7421 7.26455C13.6053 7.3983 13.3644 7.41208 13.2224 7.28349C12.8258 6.92298 12.2061 6.46029 11.8078 6.19163C8.95668 4.26508 3.76949 6.80415 5.98198 12.2233C6.79247 14.6556 10.6553 18.1062 12.9344 19.3766Z" fill="url(#paint2_radial_3133_194)"/>
<path d="M12.9344 19.3766C13.0854 19.4597 13.2553 19.5021 13.4276 19.4999C13.5999 19.4977 13.7686 19.4509 13.9174 19.364C15.9747 18.19 19.5489 15.4874 20.9532 11.9764C23.0134 7.40519 18.1751 3.75589 14.8313 6.38049C14.4824 6.65432 14.0438 6.96718 13.7421 7.26455C13.6053 7.3983 13.3644 7.41208 13.2224 7.28349C12.8258 6.92298 12.2061 6.46029 11.8078 6.19163C8.95668 4.26508 3.76949 6.80415 5.98198 12.2233C6.79247 14.6556 10.6553 18.1062 12.9344 19.3766Z" fill="url(#paint3_radial_3133_194)"/>
<path d="M12.9344 19.3766C13.0854 19.4597 13.2553 19.5021 13.4276 19.4999C13.5999 19.4977 13.7686 19.4509 13.9174 19.364C15.9747 18.19 19.5489 15.4874 20.9532 11.9764C23.0134 7.40519 18.1751 3.75589 14.8313 6.38049C14.4824 6.65432 14.0438 6.96718 13.7421 7.26455C13.6053 7.3983 13.3644 7.41208 13.2224 7.28349C12.8258 6.92298 12.2061 6.46029 11.8078 6.19163C8.95668 4.26508 3.76949 6.80415 5.98198 12.2233C6.79247 14.6556 10.6553 18.1062 12.9344 19.3766Z" fill="url(#paint4_linear_3133_194)"/>
<path d="M12.9344 19.3766C13.0854 19.4597 13.2553 19.5021 13.4276 19.4999C13.5999 19.4977 13.7686 19.4509 13.9174 19.364C15.9747 18.19 19.5489 15.4874 20.9532 11.9764C23.0134 7.40519 18.1751 3.75589 14.8313 6.38049C14.4824 6.65432 14.0438 6.96718 13.7421 7.26455C13.6053 7.3983 13.3644 7.41208 13.2224 7.28349C12.8258 6.92298 12.2061 6.46029 11.8078 6.19163C8.95668 4.26508 3.76949 6.80415 5.98198 12.2233C6.79247 14.6556 10.6553 18.1062 12.9344 19.3766Z" fill="url(#paint5_linear_3133_194)"/>
<path d="M13.4684 7.51939C13.9811 7.98265 14.7715 7.84832 15.2044 7.30928C15.8619 6.49125 16.7943 5.64853 18.0296 5.56988C16.9805 5.36896 15.8384 5.58997 14.8307 6.38045C14.7445 6.44819 14.6525 6.5188 14.5583 6.59056C14.2795 6.80353 13.9834 7.03029 13.7581 7.24843C13.6121 7.38965 13.3569 7.404 13.2063 7.26852C13.1832 7.2477 13.16 7.22703 13.1367 7.20652C13.2224 7.29263 13.3391 7.40228 13.4684 7.51939Z" fill="url(#paint6_linear_3133_194)"/>
<g filter="url(#filter0_f_3133_194)">
<path d="M13.4473 9.35593V12.9094C13.4473 14.4674 15.097 14.988 15.5994 13.5121C16.0288 12.2492 16.2116 10.8887 15.8425 9.70209C15.5925 8.89841 14.9884 8.45811 14.4216 8.30426C13.8255 8.14237 13.4473 8.73825 13.4473 9.35593Z" fill="#FA1C56"/>
</g>
<g filter="url(#filter1_f_3133_194)">
<path d="M19.6129 10.2384C20.5594 9.31948 20.8134 8.04733 20.1803 7.39693C19.5472 6.74654 18.2667 6.9642 17.3202 7.88308C16.3737 8.80197 16.1197 10.0741 16.7528 10.7245C17.3859 11.3749 18.6664 11.1573 19.6129 10.2384Z" fill="url(#paint7_radial_3133_194)"/>
</g>
<g filter="url(#filter2_f_3133_194)">
<path d="M12.7084 7.80131C11.8785 6.77617 10.6331 6.40743 9.92683 6.97771C9.22053 7.54799 9.32073 8.84134 10.1506 9.86648C10.9805 10.8916 12.2259 11.2604 12.9322 10.6901C13.6385 10.1198 13.5383 8.82645 12.7084 7.80131Z" fill="url(#paint8_radial_3133_194)" fill-opacity="0.5"/>
</g>
<g filter="url(#filter3_f_3133_194)">
<path d="M9.41006 14.0301L9.08873 12.1707C9.00308 11.906 8.81052 11.8751 8.70245 12.0542L7.52637 14.5215L9.41006 14.0301Z" fill="#A71135"/>
</g>
<path d="M8.15462 13.9561C8.12283 14.0543 8.07016 14.1446 8.00022 14.2207C7.93028 14.2968 7.84472 14.3569 7.74938 14.3969L6.23472 15.0324C6.18253 15.0543 6.13798 15.0911 6.10664 15.1382C6.07531 15.1853 6.05859 15.2405 6.05859 15.2971C6.05859 15.3536 6.07531 15.4089 6.10664 15.4559C6.13798 15.503 6.18253 15.5398 6.23472 15.5617L7.75627 16.2006C7.94941 16.2816 8.09772 16.4435 8.16152 16.6427L8.83406 18.7305C8.85269 18.7884 8.88922 18.8388 8.93839 18.8746C8.98756 18.9104 9.04683 18.9297 9.10768 18.9297C9.16852 18.9297 9.2278 18.9104 9.27697 18.8746C9.32614 18.8388 9.36267 18.7884 9.38129 18.7305L10.051 16.649C10.0826 16.5508 10.1351 16.4606 10.2049 16.3845C10.2746 16.3084 10.3599 16.2483 10.4551 16.2081L11.9847 15.5617C12.0367 15.5397 12.0811 15.5029 12.1123 15.4559C12.1435 15.4089 12.1601 15.3537 12.1601 15.2973C12.1601 15.2409 12.1435 15.1858 12.1123 15.1388C12.0811 15.0918 12.0367 15.055 11.9847 15.033L10.462 14.3895C10.3671 14.3494 10.2819 14.2893 10.2123 14.2135C10.1427 14.1376 10.0902 14.0476 10.0584 13.9497L9.38014 11.8584C9.36138 11.8008 9.32483 11.7506 9.27573 11.715C9.22663 11.6793 9.1675 11.6602 9.10682 11.6602C9.04613 11.6602 8.987 11.6793 8.9379 11.715C8.8888 11.7506 8.85225 11.8008 8.83349 11.8584L8.15462 13.9561Z" fill="url(#paint9_linear_3133_194)"/>
<path d="M8.15462 13.9561C8.12283 14.0543 8.07016 14.1446 8.00022 14.2207C7.93028 14.2968 7.84472 14.3569 7.74938 14.3969L6.23472 15.0324C6.18253 15.0543 6.13798 15.0911 6.10664 15.1382C6.07531 15.1853 6.05859 15.2405 6.05859 15.2971C6.05859 15.3536 6.07531 15.4089 6.10664 15.4559C6.13798 15.503 6.18253 15.5398 6.23472 15.5617L7.75627 16.2006C7.94941 16.2816 8.09772 16.4435 8.16152 16.6427L8.83406 18.7305C8.85269 18.7884 8.88922 18.8388 8.93839 18.8746C8.98756 18.9104 9.04683 18.9297 9.10768 18.9297C9.16852 18.9297 9.2278 18.9104 9.27697 18.8746C9.32614 18.8388 9.36267 18.7884 9.38129 18.7305L10.051 16.649C10.0826 16.5508 10.1351 16.4606 10.2049 16.3845C10.2746 16.3084 10.3599 16.2483 10.4551 16.2081L11.9847 15.5617C12.0367 15.5397 12.0811 15.5029 12.1123 15.4559C12.1435 15.4089 12.1601 15.3537 12.1601 15.2973C12.1601 15.2409 12.1435 15.1858 12.1123 15.1388C12.0811 15.0918 12.0367 15.055 11.9847 15.033L10.462 14.3895C10.3671 14.3494 10.2819 14.2893 10.2123 14.2135C10.1427 14.1376 10.0902 14.0476 10.0584 13.9497L9.38014 11.8584C9.36138 11.8008 9.32483 11.7506 9.27573 11.715C9.22663 11.6793 9.1675 11.6602 9.10682 11.6602C9.04613 11.6602 8.987 11.6793 8.9379 11.715C8.8888 11.7506 8.85225 11.8008 8.83349 11.8584L8.15462 13.9561Z" fill="url(#paint10_linear_3133_194)"/>
<path d="M8.15462 13.9561C8.12283 14.0543 8.07016 14.1446 8.00022 14.2207C7.93028 14.2968 7.84472 14.3569 7.74938 14.3969L6.23472 15.0324C6.18253 15.0543 6.13798 15.0911 6.10664 15.1382C6.07531 15.1853 6.05859 15.2405 6.05859 15.2971C6.05859 15.3536 6.07531 15.4089 6.10664 15.4559C6.13798 15.503 6.18253 15.5398 6.23472 15.5617L7.75627 16.2006C7.94941 16.2816 8.09772 16.4435 8.16152 16.6427L8.83406 18.7305C8.85269 18.7884 8.88922 18.8388 8.93839 18.8746C8.98756 18.9104 9.04683 18.9297 9.10768 18.9297C9.16852 18.9297 9.2278 18.9104 9.27697 18.8746C9.32614 18.8388 9.36267 18.7884 9.38129 18.7305L10.051 16.649C10.0826 16.5508 10.1351 16.4606 10.2049 16.3845C10.2746 16.3084 10.3599 16.2483 10.4551 16.2081L11.9847 15.5617C12.0367 15.5397 12.0811 15.5029 12.1123 15.4559C12.1435 15.4089 12.1601 15.3537 12.1601 15.2973C12.1601 15.2409 12.1435 15.1858 12.1123 15.1388C12.0811 15.0918 12.0367 15.055 11.9847 15.033L10.462 14.3895C10.3671 14.3494 10.2819 14.2893 10.2123 14.2135C10.1427 14.1376 10.0902 14.0476 10.0584 13.9497L9.38014 11.8584C9.36138 11.8008 9.32483 11.7506 9.27573 11.715C9.22663 11.6793 9.1675 11.6602 9.10682 11.6602C9.04613 11.6602 8.987 11.6793 8.9379 11.715C8.8888 11.7506 8.85225 11.8008 8.83349 11.8584L8.15462 13.9561Z" fill="url(#paint11_linear_3133_194)"/>
<path d="M8.15462 13.9561C8.12283 14.0543 8.07016 14.1446 8.00022 14.2207C7.93028 14.2968 7.84472 14.3569 7.74938 14.3969L6.23472 15.0324C6.18253 15.0543 6.13798 15.0911 6.10664 15.1382C6.07531 15.1853 6.05859 15.2405 6.05859 15.2971C6.05859 15.3536 6.07531 15.4089 6.10664 15.4559C6.13798 15.503 6.18253 15.5398 6.23472 15.5617L7.75627 16.2006C7.94941 16.2816 8.09772 16.4435 8.16152 16.6427L8.83406 18.7305C8.85269 18.7884 8.88922 18.8388 8.93839 18.8746C8.98756 18.9104 9.04683 18.9297 9.10768 18.9297C9.16852 18.9297 9.2278 18.9104 9.27697 18.8746C9.32614 18.8388 9.36267 18.7884 9.38129 18.7305L10.051 16.649C10.0826 16.5508 10.1351 16.4606 10.2049 16.3845C10.2746 16.3084 10.3599 16.2483 10.4551 16.2081L11.9847 15.5617C12.0367 15.5397 12.0811 15.5029 12.1123 15.4559C12.1435 15.4089 12.1601 15.3537 12.1601 15.2973C12.1601 15.2409 12.1435 15.1858 12.1123 15.1388C12.0811 15.0918 12.0367 15.055 11.9847 15.033L10.462 14.3895C10.3671 14.3494 10.2819 14.2893 10.2123 14.2135C10.1427 14.1376 10.0902 14.0476 10.0584 13.9497L9.38014 11.8584C9.36138 11.8008 9.32483 11.7506 9.27573 11.715C9.22663 11.6793 9.1675 11.6602 9.10682 11.6602C9.04613 11.6602 8.987 11.6793 8.9379 11.715C8.8888 11.7506 8.85225 11.8008 8.83349 11.8584L8.15462 13.9561Z" fill="url(#paint12_radial_3133_194)"/>
<path d="M8.21153 16.3327H7.96321C7.90233 16.2771 7.83233 16.2325 7.75627 16.2006L6.23472 15.5617C6.18253 15.5398 6.13798 15.503 6.10664 15.4559C6.07531 15.4089 6.05859 15.3536 6.05859 15.2971C6.05859 15.2405 6.07531 15.1853 6.10664 15.1382C6.13798 15.0911 6.18253 15.0543 6.23472 15.0324L7.74938 14.3969C7.84472 14.3569 7.93028 14.2968 8.00022 14.2207C8.07016 14.1446 8.12283 14.0543 8.15462 13.9561L8.83406 11.8584C8.85283 11.8008 8.88938 11.7506 8.93848 11.715C8.98758 11.6793 9.0467 11.6602 9.10739 11.6602C9.16808 11.6602 9.22721 11.6793 9.2763 11.715C9.3254 11.7506 9.36195 11.8008 9.38072 11.8584L10.0584 13.9497C10.1228 14.1478 10.27 14.3085 10.462 14.3895L11.9847 15.0324C12.0368 15.0543 12.0814 15.0911 12.1127 15.1382C12.1441 15.1853 12.1608 15.2405 12.1608 15.2971C12.1608 15.3536 12.1441 15.4089 12.1127 15.4559C12.0814 15.503 12.0368 15.5398 11.9847 15.5617L7.83215 15.8085C7.75857 15.8395 8.09944 16.072 8.21153 16.3327Z" fill="url(#paint13_linear_3133_194)"/>
<path d="M8.21153 16.3327H7.96321C7.90233 16.2771 7.83233 16.2325 7.75627 16.2006L6.23472 15.5617C6.18253 15.5398 6.13798 15.503 6.10664 15.4559C6.07531 15.4089 6.05859 15.3536 6.05859 15.2971C6.05859 15.2405 6.07531 15.1853 6.10664 15.1382C6.13798 15.0911 6.18253 15.0543 6.23472 15.0324L7.74938 14.3969C7.84472 14.3569 7.93028 14.2968 8.00022 14.2207C8.07016 14.1446 8.12283 14.0543 8.15462 13.9561L8.83406 11.8584C8.85283 11.8008 8.88938 11.7506 8.93848 11.715C8.98758 11.6793 9.0467 11.6602 9.10739 11.6602C9.16808 11.6602 9.22721 11.6793 9.2763 11.715C9.3254 11.7506 9.36195 11.8008 9.38072 11.8584L10.0584 13.9497C10.1228 14.1478 10.27 14.3085 10.462 14.3895L11.9847 15.0324C12.0368 15.0543 12.0814 15.0911 12.1127 15.1382C12.1441 15.1853 12.1608 15.2405 12.1608 15.2971C12.1608 15.3536 12.1441 15.4089 12.1127 15.4559C12.0814 15.503 12.0368 15.5398 11.9847 15.5617L7.83215 15.8085C7.75857 15.8395 8.09944 16.072 8.21153 16.3327Z" fill="url(#paint14_linear_3133_194)"/>
<path d="M7.96289 16.3359C8.05371 16.4192 8.12269 16.5254 8.1612 16.6454L8.83374 18.7332C8.85237 18.7911 8.8889 18.8415 8.93807 18.8773C8.98724 18.9131 9.04651 18.9324 9.10736 18.9324C9.1682 18.9324 9.22748 18.9131 9.27665 18.8773C9.32582 18.8415 9.36235 18.7911 9.38097 18.7332L10.0506 16.6517C10.0899 16.53 10.1609 16.421 10.2564 16.3359H7.96289Z" fill="url(#paint15_linear_3133_194)"/>
<g filter="url(#filter4_f_3133_194)">
<path d="M9.30469 12.0469L9.85996 13.9068C9.91055 14.076 9.99952 14.2312 10.12 14.3604C10.2404 14.4897 10.389 14.5894 10.5543 14.652L11.8017 15.1238" stroke="url(#paint16_radial_3133_194)" stroke-width="0.082" stroke-linecap="round"/>
</g>
<g filter="url(#filter5_f_3133_194)">
<path d="M9.16992 19.0241L9.79878 16.9609" stroke="url(#paint17_linear_3133_194)" stroke-width="0.082" stroke-linecap="round"/>
</g>
<g filter="url(#filter6_f_3133_194)">
<path d="M8.18262 14.5498L8.93736 12.0469" stroke="url(#paint18_linear_3133_194)" stroke-width="0.082" stroke-linecap="round"/>
</g>
<g filter="url(#filter7_f_3133_194)">
<path d="M16.7925 8.24426C16.7177 8.40892 16.5835 8.53931 16.4166 8.60937L15.6797 8.91936C15.6513 8.93146 15.6271 8.95162 15.6101 8.97734C15.5931 9.00306 15.584 9.0332 15.584 9.06402C15.584 9.09484 15.5931 9.12498 15.6101 9.1507C15.6271 9.17642 15.6513 9.19658 15.6797 9.20868L16.4281 9.52327C16.5907 9.59158 16.7224 9.71673 16.7983 9.87517L17.2765 10.8752C17.3236 11.021 17.5294 11.021 17.5766 10.8752L17.7519 10.0049C17.7749 9.89036 17.8256 9.78317 17.8995 9.69263C17.9734 9.60209 18.0684 9.53095 18.1761 9.48538L18.8314 9.20868C18.86 9.19667 18.8843 9.17651 18.9015 9.15072C18.9186 9.12494 18.9277 9.09468 18.9277 9.06373C18.9277 9.03279 18.9186 9.00253 18.9015 8.97675C18.8843 8.95096 18.86 8.9308 18.8314 8.91878L18.133 8.62429C18.0381 8.58421 17.9529 8.5242 17.8833 8.44832C17.8136 8.37244 17.7612 8.28249 17.7295 8.18456L17.4041 7.17881C17.357 7.03415 17.3236 7.03415 17.2771 7.17881L16.7925 8.24426Z" fill="#C01942"/>
</g>
<path d="M17.0888 8.10965C17.057 8.20794 17.0043 8.29821 16.9344 8.3743C16.8644 8.45039 16.7789 8.5105 16.6835 8.55053L15.9909 8.84158C15.9623 8.8536 15.9379 8.87376 15.9208 8.89954C15.9037 8.92532 15.8945 8.95558 15.8945 8.98653C15.8945 9.01748 15.9037 9.04774 15.9208 9.07352C15.9379 9.0993 15.9623 9.11946 15.9909 9.13148L16.687 9.42425C16.8801 9.50462 17.0284 9.6665 17.0928 9.8657L17.4153 10.868C17.4618 11.0132 17.6682 11.0132 17.7153 10.868L18.0372 9.86915C18.0687 9.77082 18.121 9.68043 18.1907 9.60414C18.2603 9.52786 18.3456 9.46748 18.4408 9.42712L19.142 9.13091C19.1704 9.11881 19.1946 9.09864 19.2116 9.07292C19.2286 9.04721 19.2377 9.01706 19.2377 8.98624C19.2377 8.95542 19.2286 8.92528 19.2116 8.89956C19.1946 8.87384 19.1704 8.85368 19.142 8.84158L18.4442 8.54651C18.3493 8.5064 18.2642 8.44638 18.1945 8.3705C18.1249 8.29463 18.0724 8.20469 18.0407 8.10678L17.7153 7.10161C17.7052 7.06984 17.6852 7.04212 17.6582 7.02245C17.6312 7.00279 17.5987 6.99219 17.5653 6.99219C17.5319 6.99219 17.4994 7.00279 17.4724 7.02245C17.4455 7.04212 17.4254 7.06984 17.4153 7.10161L17.0888 8.10965Z" fill="url(#paint19_linear_3133_194)"/>
<path d="M17.0888 8.10965C17.057 8.20794 17.0043 8.29821 16.9344 8.3743C16.8644 8.45039 16.7789 8.5105 16.6835 8.55053L15.9909 8.84158C15.9623 8.8536 15.9379 8.87376 15.9208 8.89954C15.9037 8.92532 15.8945 8.95558 15.8945 8.98653C15.8945 9.01748 15.9037 9.04774 15.9208 9.07352C15.9379 9.0993 15.9623 9.11946 15.9909 9.13148L16.687 9.42425C16.8801 9.50462 17.0284 9.6665 17.0928 9.8657L17.4153 10.868C17.4618 11.0132 17.6682 11.0132 17.7153 10.868L18.0372 9.86915C18.0687 9.77082 18.121 9.68043 18.1907 9.60414C18.2603 9.52786 18.3456 9.46748 18.4408 9.42712L19.142 9.13091C19.1704 9.11881 19.1946 9.09864 19.2116 9.07292C19.2286 9.04721 19.2377 9.01706 19.2377 8.98624C19.2377 8.95542 19.2286 8.92528 19.2116 8.89956C19.1946 8.87384 19.1704 8.85368 19.142 8.84158L18.4442 8.54651C18.3493 8.5064 18.2642 8.44638 18.1945 8.3705C18.1249 8.29463 18.0724 8.20469 18.0407 8.10678L17.7153 7.10161C17.7052 7.06984 17.6852 7.04212 17.6582 7.02245C17.6312 7.00279 17.5987 6.99219 17.5653 6.99219C17.5319 6.99219 17.4994 7.00279 17.4724 7.02245C17.4455 7.04212 17.4254 7.06984 17.4153 7.10161L17.0888 8.10965Z" fill="url(#paint20_linear_3133_194)"/>
<path d="M17.0888 8.10965C17.057 8.20794 17.0043 8.29821 16.9344 8.3743C16.8644 8.45039 16.7789 8.5105 16.6835 8.55053L15.9909 8.84158C15.9623 8.8536 15.9379 8.87376 15.9208 8.89954C15.9037 8.92532 15.8945 8.95558 15.8945 8.98653C15.8945 9.01748 15.9037 9.04774 15.9208 9.07352C15.9379 9.0993 15.9623 9.11946 15.9909 9.13148L16.687 9.42425C16.8801 9.50462 17.0284 9.6665 17.0928 9.8657L17.4153 10.868C17.4618 11.0132 17.6682 11.0132 17.7153 10.868L18.0372 9.86915C18.0687 9.77082 18.121 9.68043 18.1907 9.60414C18.2603 9.52786 18.3456 9.46748 18.4408 9.42712L19.142 9.13091C19.1704 9.11881 19.1946 9.09864 19.2116 9.07292C19.2286 9.04721 19.2377 9.01706 19.2377 8.98624C19.2377 8.95542 19.2286 8.92528 19.2116 8.89956C19.1946 8.87384 19.1704 8.85368 19.142 8.84158L18.4442 8.54651C18.3493 8.5064 18.2642 8.44638 18.1945 8.3705C18.1249 8.29463 18.0724 8.20469 18.0407 8.10678L17.7153 7.10161C17.7052 7.06984 17.6852 7.04212 17.6582 7.02245C17.6312 7.00279 17.5987 6.99219 17.5653 6.99219C17.5319 6.99219 17.4994 7.00279 17.4724 7.02245C17.4455 7.04212 17.4254 7.06984 17.4153 7.10161L17.0888 8.10965Z" fill="url(#paint21_linear_3133_194)"/>
<path d="M17.0888 8.10965C17.057 8.20794 17.0043 8.29821 16.9344 8.3743C16.8644 8.45039 16.7789 8.5105 16.6835 8.55053L15.9909 8.84158C15.9623 8.8536 15.9379 8.87376 15.9208 8.89954C15.9037 8.92532 15.8945 8.95558 15.8945 8.98653C15.8945 9.01748 15.9037 9.04774 15.9208 9.07352C15.9379 9.0993 15.9623 9.11946 15.9909 9.13148L16.687 9.42425C16.8801 9.50462 17.0284 9.6665 17.0928 9.8657L17.4153 10.868C17.4618 11.0132 17.6682 11.0132 17.7153 10.868L18.0372 9.86915C18.0687 9.77082 18.121 9.68043 18.1907 9.60414C18.2603 9.52786 18.3456 9.46748 18.4408 9.42712L19.142 9.13091C19.1704 9.11881 19.1946 9.09864 19.2116 9.07292C19.2286 9.04721 19.2377 9.01706 19.2377 8.98624C19.2377 8.95542 19.2286 8.92528 19.2116 8.89956C19.1946 8.87384 19.1704 8.85368 19.142 8.84158L18.4442 8.54651C18.3493 8.5064 18.2642 8.44638 18.1945 8.3705C18.1249 8.29463 18.0724 8.20469 18.0407 8.10678L17.7153 7.10161C17.7052 7.06984 17.6852 7.04212 17.6582 7.02245C17.6312 7.00279 17.5987 6.99219 17.5653 6.99219C17.5319 6.99219 17.4994 7.00279 17.4724 7.02245C17.4455 7.04212 17.4254 7.06984 17.4153 7.10161L17.0888 8.10965Z" fill="url(#paint22_radial_3133_194)"/>
<path d="M17.0744 9.55399H16.9382C16.9049 9.52356 16.8666 9.4991 16.8249 9.48166L15.9909 9.13148C15.9623 9.11946 15.9379 9.0993 15.9208 9.07352C15.9037 9.04774 15.8945 9.01748 15.8945 8.98653C15.8945 8.95558 15.9037 8.92532 15.9208 8.89954C15.9379 8.87376 15.9623 8.8536 15.9909 8.84158L16.8209 8.49255C16.8731 8.47064 16.9199 8.43777 16.9582 8.39616C16.9965 8.35456 17.0253 8.3052 17.0428 8.25145L17.4153 7.10161C17.4254 7.06984 17.4455 7.04212 17.4724 7.02245C17.4994 7.00279 17.5319 6.99219 17.5653 6.99219C17.5987 6.99219 17.6312 7.00279 17.6582 7.02245C17.6852 7.04212 17.7052 7.06984 17.7153 7.10161L18.0867 8.24743C18.1212 8.3565 18.2022 8.44433 18.3074 8.48853L19.142 8.84158C19.1706 8.8536 19.195 8.87376 19.2121 8.89954C19.2292 8.92532 19.2384 8.95558 19.2384 8.98653C19.2384 9.01748 19.2292 9.04774 19.2121 9.07352C19.195 9.0993 19.1706 9.11946 19.142 9.13148L16.8658 9.26638C16.8261 9.28361 17.0129 9.41162 17.0744 9.55399Z" fill="url(#paint23_linear_3133_194)"/>
<path d="M17.0744 9.55399H16.9382C16.9049 9.52356 16.8666 9.4991 16.8249 9.48166L15.9909 9.13148C15.9623 9.11946 15.9379 9.0993 15.9208 9.07352C15.9037 9.04774 15.8945 9.01748 15.8945 8.98653C15.8945 8.95558 15.9037 8.92532 15.9208 8.89954C15.9379 8.87376 15.9623 8.8536 15.9909 8.84158L16.8209 8.49255C16.8731 8.47064 16.9199 8.43777 16.9582 8.39616C16.9965 8.35456 17.0253 8.3052 17.0428 8.25145L17.4153 7.10161C17.4254 7.06984 17.4455 7.04212 17.4724 7.02245C17.4994 7.00279 17.5319 6.99219 17.5653 6.99219C17.5987 6.99219 17.6312 7.00279 17.6582 7.02245C17.6852 7.04212 17.7052 7.06984 17.7153 7.10161L18.0867 8.24743C18.1212 8.3565 18.2022 8.44433 18.3074 8.48853L19.142 8.84158C19.1706 8.8536 19.195 8.87376 19.2121 8.89954C19.2292 8.92532 19.2384 8.95558 19.2384 8.98653C19.2384 9.01748 19.2292 9.04774 19.2121 9.07352C19.195 9.0993 19.1706 9.11946 19.142 9.13148L16.8658 9.26638C16.8261 9.28361 17.0129 9.41162 17.0744 9.55399Z" fill="url(#paint24_linear_3133_194)"/>
<path d="M16.9385 9.55469C16.9885 9.60061 17.0258 9.65859 17.0477 9.72461L17.4156 10.8687C17.4627 11.0139 17.6685 11.0139 17.7156 10.8687L18.0829 9.72805C18.1044 9.66127 18.1432 9.60141 18.1956 9.55469H16.9385Z" fill="url(#paint25_linear_3133_194)"/>
<g filter="url(#filter8_f_3133_194)">
<path d="M17.6738 7.20312L17.9049 7.97638C17.9556 8.1456 18.0446 8.30086 18.1651 8.4301C18.2857 8.55934 18.4344 8.65906 18.5999 8.72151L19.0425 8.88914" stroke="url(#paint26_radial_3133_194)" stroke-width="0.082" stroke-linecap="round"/>
</g>
<g filter="url(#filter9_f_3133_194)">
<path d="M17.5996 11.0293L17.9445 9.89844" stroke="url(#paint27_linear_3133_194)" stroke-width="0.082" stroke-linecap="round"/>
</g>
<g filter="url(#filter10_f_3133_194)">
<path d="M17.0576 8.57513L17.4715 7.20312" stroke="url(#paint28_linear_3133_194)" stroke-width="0.082" stroke-linecap="round"/>
</g>
<defs>
<filter id="filter0_f_3133_194" x="11.8073" y="6.63734" width="5.87375" height="9.38938" filterUnits="userSpaceOnUse" color-interpolation-filters="sRGB">
<feFlood flood-opacity="0" result="BackgroundImageFix"/>
<feBlend mode="normal" in="SourceGraphic" in2="BackgroundImageFix" result="shape"/>
<feGaussianBlur stdDeviation="0.82" result="effect1_foregroundBlur_3133_194"/>
</filter>
<filter id="filter1_f_3133_194" x="15.1743" y="5.79344" width="6.58402" height="6.53422" filterUnits="userSpaceOnUse" color-interpolation-filters="sRGB">
<feFlood flood-opacity="0" result="BackgroundImageFix"/>
<feBlend mode="normal" in="SourceGraphic" in2="BackgroundImageFix" result="shape"/>
<feGaussianBlur stdDeviation="0.615" result="effect1_foregroundBlur_3133_194"/>
</filter>
<filter id="filter2_f_3133_194" x="8.22605" y="5.48094" width="6.40629" height="6.70609" filterUnits="userSpaceOnUse" color-interpolation-filters="sRGB">
<feFlood flood-opacity="0" result="BackgroundImageFix"/>
<feBlend mode="normal" in="SourceGraphic" in2="BackgroundImageFix" result="shape"/>
<feGaussianBlur stdDeviation="0.615" result="effect1_foregroundBlur_3133_194"/>
</filter>
<filter id="filter3_f_3133_194" x="6.70637" y="11.1214" width="3.52379" height="4.21813" filterUnits="userSpaceOnUse" color-interpolation-filters="sRGB">
<feFlood flood-opacity="0" result="BackgroundImageFix"/>
<feBlend mode="normal" in="SourceGraphic" in2="BackgroundImageFix" result="shape"/>
<feGaussianBlur stdDeviation="0.41" result="effect1_foregroundBlur_3133_194"/>
</filter>
<filter id="filter4_f_3133_194" x="9.05867" y="11.8028" width="2.9891" height="3.56625" filterUnits="userSpaceOnUse" color-interpolation-filters="sRGB">
<feFlood flood-opacity="0" result="BackgroundImageFix"/>
<feBlend mode="normal" in="SourceGraphic" in2="BackgroundImageFix" result="shape"/>
<feGaussianBlur stdDeviation="0.1025" result="effect1_foregroundBlur_3133_194"/>
</filter>
<filter id="filter5_f_3133_194" x="9.00591" y="16.7989" width="0.956938" height="2.39053" filterUnits="userSpaceOnUse" color-interpolation-filters="sRGB">
<feFlood flood-opacity="0" result="BackgroundImageFix"/>
<feBlend mode="normal" in="SourceGraphic" in2="BackgroundImageFix" result="shape"/>
<feGaussianBlur stdDeviation="0.0615" result="effect1_foregroundBlur_3133_194"/>
</filter>
<filter id="filter6_f_3133_194" x="7.8956" y="11.7618" width="1.32891" height="3.07403" filterUnits="userSpaceOnUse" color-interpolation-filters="sRGB">
<feFlood flood-opacity="0" result="BackgroundImageFix"/>
<feBlend mode="normal" in="SourceGraphic" in2="BackgroundImageFix" result="shape"/>
<feGaussianBlur stdDeviation="0.123" result="effect1_foregroundBlur_3133_194"/>
</filter>
<filter id="filter7_f_3133_194" x="14.969" y="6.45531" width="4.57375" height="5.14406" filterUnits="userSpaceOnUse" color-interpolation-filters="sRGB">
<feFlood flood-opacity="0" result="BackgroundImageFix"/>
<feBlend mode="normal" in="SourceGraphic" in2="BackgroundImageFix" result="shape"/>
<feGaussianBlur stdDeviation="0.3075" result="effect1_foregroundBlur_3133_194"/>
</filter>
<filter id="filter8_f_3133_194" x="17.4278" y="6.95906" width="1.8602" height="2.17563" filterUnits="userSpaceOnUse" color-interpolation-filters="sRGB">
<feFlood flood-opacity="0" result="BackgroundImageFix"/>
<feBlend mode="normal" in="SourceGraphic" in2="BackgroundImageFix" result="shape"/>
<feGaussianBlur stdDeviation="0.1025" result="effect1_foregroundBlur_3133_194"/>
</filter>
<filter id="filter9_f_3133_194" x="17.4356" y="9.73637" width="0.672758" height="1.45694" filterUnits="userSpaceOnUse" color-interpolation-filters="sRGB">
<feFlood flood-opacity="0" result="BackgroundImageFix"/>
<feBlend mode="normal" in="SourceGraphic" in2="BackgroundImageFix" result="shape"/>
<feGaussianBlur stdDeviation="0.0615" result="effect1_foregroundBlur_3133_194"/>
</filter>
<filter id="filter10_f_3133_194" x="16.7706" y="6.91806" width="0.988094" height="1.94513" filterUnits="userSpaceOnUse" color-interpolation-filters="sRGB">
<feFlood flood-opacity="0" result="BackgroundImageFix"/>
<feBlend mode="normal" in="SourceGraphic" in2="BackgroundImageFix" result="shape"/>
<feGaussianBlur stdDeviation="0.123" result="effect1_foregroundBlur_3133_194"/>
</filter>
<radialGradient id="paint0_radial_3133_194" cx="0" cy="0" r="1" gradientUnits="userSpaceOnUse" gradientTransform="translate(15.0705 19.2498) rotate(-90) scale(18.6809 31.7997)">
<stop stop-color="#F12E52"/>
<stop offset="0.596" stop-color="#FF3B79"/>
<stop offset="1" stop-color="#FF4EC6"/>
</radialGradient>
<radialGradient id="paint1_radial_3133_194" cx="0" cy="0" r="1" gradientUnits="userSpaceOnUse" gradientTransform="translate(17.4179 9.14866) rotate(143.023) scale(15.0508 28.1814)">
<stop offset="0.483" stop-color="#B91D43" stop-opacity="0"/>
<stop offset="0.834" stop-color="#B91D43"/>
</radialGradient>
<radialGradient id="paint2_radial_3133_194" cx="0" cy="0" r="1" gradientUnits="userSpaceOnUse" gradientTransform="translate(15.6792 12.8329) rotate(-158.689) scale(13.0593 18.4432)">
<stop offset="0.41" stop-color="#B91D43" stop-opacity="0"/>
<stop offset="0.834" stop-color="#B91D43"/>
</radialGradient>
<radialGradient id="paint3_radial_3133_194" cx="0" cy="0" r="1" gradientUnits="userSpaceOnUse" gradientTransform="translate(13.1316 10.5545) rotate(90) scale(11.3528 11.3679)">
<stop offset="0.671" stop-color="#FF7AF2" stop-opacity="0"/>
<stop offset="0.934" stop-color="#FFBCE6"/>
</radialGradient>
<linearGradient id="paint4_linear_3133_194" x1="14.3864" y1="11.884" x2="18.9796" y2="17.3573" gradientUnits="userSpaceOnUse">
<stop offset="0.694" stop-color="#FF7AF2" stop-opacity="0"/>
<stop offset="0.934" stop-color="#FFBCE6"/>
</linearGradient>
<linearGradient id="paint5_linear_3133_194" x1="13.8162" y1="12.1113" x2="8.4255" y2="18.1937" gradientUnits="userSpaceOnUse">
<stop offset="0.694" stop-color="#FF7AF2" stop-opacity="0"/>
<stop offset="0.934" stop-color="#FFBCE6"/>
</linearGradient>
<linearGradient id="paint6_linear_3133_194" x1="15.5809" y1="7.99184" x2="13.9697" y2="6.21989" gradientUnits="userSpaceOnUse">
<stop offset="0.41" stop-color="#C12372" stop-opacity="0"/>
<stop offset="0.834" stop-color="#B5286E"/>
</linearGradient>
<radialGradient id="paint7_radial_3133_194" cx="0" cy="0" r="1" gradientUnits="userSpaceOnUse" gradientTransform="translate(20.5439 7.7488) rotate(139.073) scale(3.53224 2.38468)">
<stop stop-color="#FF93BA"/>
<stop offset="1" stop-color="#FF73A6" stop-opacity="0"/>
</radialGradient>
<radialGradient id="paint8_radial_3133_194" cx="0" cy="0" r="1" gradientUnits="userSpaceOnUse" gradientTransform="translate(10.8883 7.45822) rotate(52.7084) scale(5.08289 3.43341)">
<stop stop-color="#FF93BA"/>
<stop offset="1" stop-color="#FF73A6" stop-opacity="0"/>
</radialGradient>
<linearGradient id="paint9_linear_3133_194" x1="9.6641" y1="11.6598" x2="8.10558" y2="17.2849" gradientUnits="userSpaceOnUse">
<stop stop-color="#FFD542"/>
<stop offset="1" stop-color="#FFA847"/>
</linearGradient>
<linearGradient id="paint10_linear_3133_194" x1="8.58632" y1="16.9613" x2="8.14541" y2="19.3943" gradientUnits="userSpaceOnUse">
<stop offset="0.458" stop-color="#E88518" stop-opacity="0"/>
<stop offset="1" stop-color="#E88518"/>
</linearGradient>
<linearGradient id="paint11_linear_3133_194" x1="7.61659" y1="16.405" x2="5.18223" y2="16.3399" gradientUnits="userSpaceOnUse">
<stop offset="0.362" stop-color="#E88518" stop-opacity="0"/>
<stop offset="1" stop-color="#E88518"/>
</linearGradient>
<radialGradient id="paint12_radial_3133_194" cx="0" cy="0" r="1" gradientUnits="userSpaceOnUse" gradientTransform="translate(10.0956 9.65953) rotate(103.846) scale(4.12019 11.3971)">
<stop stop-color="#FFFF6B"/>
<stop offset="1" stop-color="#FFFF6B" stop-opacity="0"/>
</radialGradient>
<linearGradient id="paint13_linear_3133_194" x1="8.54148" y1="15.2121" x2="7.95988" y2="16.4561" gradientUnits="userSpaceOnUse">
<stop offset="0.782" stop-color="#E88518" stop-opacity="0"/>
<stop offset="1" stop-color="#E88518"/>
</linearGradient>
<linearGradient id="paint14_linear_3133_194" x1="8.54148" y1="15.2121" x2="7.95988" y2="16.4561" gradientUnits="userSpaceOnUse">
<stop offset="0.782" stop-color="#E88518" stop-opacity="0"/>
<stop offset="1" stop-color="#E88518"/>
</linearGradient>
<linearGradient id="paint15_linear_3133_194" x1="9.79082" y1="17.8515" x2="8.57425" y2="18.26" gradientUnits="userSpaceOnUse">
<stop offset="0.776" stop-color="#E88518" stop-opacity="0"/>
<stop offset="1" stop-color="#E88518"/>
</linearGradient>
<radialGradient id="paint16_radial_3133_194" cx="0" cy="0" r="1" gradientUnits="userSpaceOnUse" gradientTransform="translate(8.93623 12.0469) rotate(43.1041) scale(4.50239 3.84953)">
<stop stop-color="#FFF270" stop-opacity="0"/>
<stop offset="0.548" stop-color="#FFF270"/>
<stop offset="1" stop-color="#FFF270" stop-opacity="0"/>
</radialGradient>
<linearGradient id="paint17_linear_3133_194" x1="9.47515" y1="18.1894" x2="8.98119" y2="17.3811" gradientUnits="userSpaceOnUse">
<stop stop-color="#FFF270" stop-opacity="0"/>
<stop offset="0.495" stop-color="#FFF270" stop-opacity="0.6"/>
<stop offset="1" stop-color="#FFF270" stop-opacity="0"/>
</linearGradient>
<linearGradient id="paint18_linear_3133_194" x1="8.8655" y1="11.8586" x2="9.82889" y2="13.2616" gradientUnits="userSpaceOnUse">
<stop stop-color="#FF8A09" stop-opacity="0.6"/>
<stop offset="1" stop-color="#FF8A09" stop-opacity="0"/>
</linearGradient>
<linearGradient id="paint19_linear_3133_194" x1="17.8705" y1="6.99253" x2="17.0162" y2="10.0758" gradientUnits="userSpaceOnUse">
<stop stop-color="#FFD542"/>
<stop offset="1" stop-color="#FFA847"/>
</linearGradient>
<linearGradient id="paint20_linear_3133_194" x1="17.2796" y1="9.89842" x2="17.0377" y2="11.2321" gradientUnits="userSpaceOnUse">
<stop offset="0.458" stop-color="#E88518" stop-opacity="0"/>
<stop offset="1" stop-color="#E88518"/>
</linearGradient>
<linearGradient id="paint21_linear_3133_194" x1="16.7479" y1="9.5936" x2="15.4143" y2="9.55791" gradientUnits="userSpaceOnUse">
<stop offset="0.362" stop-color="#E88518" stop-opacity="0"/>
<stop offset="1" stop-color="#E88518"/>
</linearGradient>
<radialGradient id="paint22_radial_3133_194" cx="0" cy="0" r="1" gradientUnits="userSpaceOnUse" gradientTransform="translate(18.1061 5.89648) rotate(103.846) scale(2.25819 6.24657)">
<stop stop-color="#FFFF6B"/>
<stop offset="1" stop-color="#FFFF6B" stop-opacity="0"/>
</radialGradient>
<linearGradient id="paint23_linear_3133_194" x1="17.2549" y1="8.93974" x2="16.9366" y2="9.62148" gradientUnits="userSpaceOnUse">
<stop offset="0.782" stop-color="#E88518" stop-opacity="0"/>
<stop offset="1" stop-color="#E88518"/>
</linearGradient>
<linearGradient id="paint24_linear_3133_194" x1="17.2549" y1="8.93974" x2="16.9366" y2="9.62148" gradientUnits="userSpaceOnUse">
<stop offset="0.782" stop-color="#E88518" stop-opacity="0"/>
<stop offset="1" stop-color="#E88518"/>
</linearGradient>
<linearGradient id="paint25_linear_3133_194" x1="17.9404" y1="10.3854" x2="17.2738" y2="10.6092" gradientUnits="userSpaceOnUse">
<stop offset="0.776" stop-color="#E88518" stop-opacity="0"/>
<stop offset="1" stop-color="#E88518"/>
</linearGradient>
<radialGradient id="paint26_radial_3133_194" cx="0" cy="0" r="1" gradientUnits="userSpaceOnUse" gradientTransform="translate(17.4721 7.20341) rotate(43.1041) scale(2.46767 2.10985)">
<stop stop-color="#FFF270" stop-opacity="0"/>
<stop offset="0.548" stop-color="#FFF270"/>
<stop offset="1" stop-color="#FFF270" stop-opacity="0"/>
</radialGradient>
<linearGradient id="paint27_linear_3133_194" x1="17.7669" y1="10.5724" x2="17.4961" y2="10.1295" gradientUnits="userSpaceOnUse">
<stop stop-color="#FFF270" stop-opacity="0"/>
<stop offset="0.495" stop-color="#FFF270" stop-opacity="0.6"/>
<stop offset="1" stop-color="#FFF270" stop-opacity="0"/>
</linearGradient>
<linearGradient id="paint28_linear_3133_194" x1="17.4318" y1="7.10037" x2="17.9597" y2="7.86911" gradientUnits="userSpaceOnUse">
<stop stop-color="#FF8A09" stop-opacity="0.6"/>
<stop offset="1" stop-color="#FF8A09" stop-opacity="0"/>
</linearGradient>
</defs>
</svg>
