<svg width="26" height="25" viewBox="0 0 26 25" fill="none" xmlns="http://www.w3.org/2000/svg">
<g filter="url(#filter0_i_3133_195)">
<path d="M8.31704 7.10547H7.26978L4.87514 14.6524C3.76721 18.6366 5.7685 21.3776 8.84641 21.3776H17.0374C18.0156 21.3639 18.9716 21.0675 19.8017 20.5206C20.6319 19.9736 21.3044 19.1971 21.7465 18.275C22.1885 17.353 22.3831 16.3207 22.3093 15.2901C22.2354 14.2595 21.8959 13.27 21.3276 12.4287C20.7592 11.5875 19.9837 10.9267 19.0851 10.5181C18.1865 10.1094 17.1991 9.9684 16.2301 10.1104C15.261 10.2524 14.3473 10.672 13.5879 11.3237C12.8286 11.9753 12.2526 12.8342 11.9224 13.8071C11.9121 13.8384 11.8929 13.8656 11.8674 13.8849C11.8419 13.9042 11.8114 13.9147 11.78 13.915C11.7527 13.9149 11.726 13.907 11.7027 13.892C11.6794 13.877 11.6604 13.8556 11.6478 13.83L8.31704 7.10547Z" fill="url(#paint0_radial_3133_195)"/>
</g>
<path d="M8.31704 7.10547H7.26978L4.87514 14.6524C3.76721 18.6366 5.7685 21.3776 8.84641 21.3776H17.0374C18.0156 21.3639 18.9716 21.0675 19.8017 20.5206C20.6319 19.9736 21.3044 19.1971 21.7465 18.275C22.1885 17.353 22.3831 16.3207 22.3093 15.2901C22.2354 14.2595 21.8959 13.27 21.3276 12.4287C20.7592 11.5875 19.9837 10.9267 19.0851 10.5181C18.1865 10.1094 17.1991 9.9684 16.2301 10.1104C15.261 10.2524 14.3473 10.672 13.5879 11.3237C12.8286 11.9753 12.2526 12.8342 11.9224 13.8071C11.9121 13.8384 11.8929 13.8656 11.8674 13.8849C11.8419 13.9042 11.8114 13.9147 11.78 13.915C11.7527 13.9149 11.726 13.907 11.7027 13.892C11.6794 13.877 11.6604 13.8556 11.6478 13.83L8.31704 7.10547Z" fill="url(#paint1_linear_3133_195)"/>
<path d="M8.31704 7.10547H7.26978L4.87514 14.6524C3.76721 18.6366 5.7685 21.3776 8.84641 21.3776H17.0374C18.0156 21.3639 18.9716 21.0675 19.8017 20.5206C20.6319 19.9736 21.3044 19.1971 21.7465 18.275C22.1885 17.353 22.3831 16.3207 22.3093 15.2901C22.2354 14.2595 21.8959 13.27 21.3276 12.4287C20.7592 11.5875 19.9837 10.9267 19.0851 10.5181C18.1865 10.1094 17.1991 9.9684 16.2301 10.1104C15.261 10.2524 14.3473 10.672 13.5879 11.3237C12.8286 11.9753 12.2526 12.8342 11.9224 13.8071C11.9121 13.8384 11.8929 13.8656 11.8674 13.8849C11.8419 13.9042 11.8114 13.9147 11.78 13.915C11.7527 13.9149 11.726 13.907 11.7027 13.892C11.6794 13.877 11.6604 13.8556 11.6478 13.83L8.31704 7.10547Z" fill="url(#paint2_radial_3133_195)"/>
<path d="M8.31704 7.10547H7.26978L4.87514 14.6524C3.76721 18.6366 5.7685 21.3776 8.84641 21.3776H17.0374C18.0156 21.3639 18.9716 21.0675 19.8017 20.5206C20.6319 19.9736 21.3044 19.1971 21.7465 18.275C22.1885 17.353 22.3831 16.3207 22.3093 15.2901C22.2354 14.2595 21.8959 13.27 21.3276 12.4287C20.7592 11.5875 19.9837 10.9267 19.0851 10.5181C18.1865 10.1094 17.1991 9.9684 16.2301 10.1104C15.261 10.2524 14.3473 10.672 13.5879 11.3237C12.8286 11.9753 12.2526 12.8342 11.9224 13.8071C11.9121 13.8384 11.8929 13.8656 11.8674 13.8849C11.8419 13.9042 11.8114 13.9147 11.78 13.915C11.7527 13.9149 11.726 13.907 11.7027 13.892C11.6794 13.877 11.6604 13.8556 11.6478 13.83L8.31704 7.10547Z" fill="url(#paint3_radial_3133_195)"/>
<path d="M8.31704 7.10547H7.26978L4.87514 14.6524C3.76721 18.6366 5.7685 21.3776 8.84641 21.3776H17.0374C18.0156 21.3639 18.9716 21.0675 19.8017 20.5206C20.6319 19.9736 21.3044 19.1971 21.7465 18.275C22.1885 17.353 22.3831 16.3207 22.3093 15.2901C22.2354 14.2595 21.8959 13.27 21.3276 12.4287C20.7592 11.5875 19.9837 10.9267 19.0851 10.5181C18.1865 10.1094 17.1991 9.9684 16.2301 10.1104C15.261 10.2524 14.3473 10.672 13.5879 11.3237C12.8286 11.9753 12.2526 12.8342 11.9224 13.8071C11.9121 13.8384 11.8929 13.8656 11.8674 13.8849C11.8419 13.9042 11.8114 13.9147 11.78 13.915C11.7527 13.9149 11.726 13.907 11.7027 13.892C11.6794 13.877 11.6604 13.8556 11.6478 13.83L8.31704 7.10547Z" fill="url(#paint4_radial_3133_195)"/>
<path d="M8.31704 7.10547H7.26978L4.87514 14.6524C3.76721 18.6366 5.7685 21.3776 8.84641 21.3776H17.0374C18.0156 21.3639 18.9716 21.0675 19.8017 20.5206C20.6319 19.9736 21.3044 19.1971 21.7465 18.275C22.1885 17.353 22.3831 16.3207 22.3093 15.2901C22.2354 14.2595 21.8959 13.27 21.3276 12.4287C20.7592 11.5875 19.9837 10.9267 19.0851 10.5181C18.1865 10.1094 17.1991 9.9684 16.2301 10.1104C15.261 10.2524 14.3473 10.672 13.5879 11.3237C12.8286 11.9753 12.2526 12.8342 11.9224 13.8071C11.9121 13.8384 11.8929 13.8656 11.8674 13.8849C11.8419 13.9042 11.8114 13.9147 11.78 13.915C11.7527 13.9149 11.726 13.907 11.7027 13.892C11.6794 13.877 11.6604 13.8556 11.6478 13.83L8.31704 7.10547Z" fill="url(#paint5_radial_3133_195)"/>
<path d="M15.9374 21.3791L11.8486 13.8983C11.8832 13.8794 11.9096 13.8473 11.9227 13.8086C12.3472 12.5519 13.1783 11.494 14.2694 10.8217C15.3604 10.1494 16.6412 9.90593 17.8856 10.1343C19.1301 10.3627 20.2581 11.0482 21.0706 12.0698C21.8831 13.0914 22.3279 14.3834 22.3263 15.7178C22.3266 17.2065 21.7717 18.6355 20.7818 19.6951C19.792 20.7548 18.4468 21.3598 17.0377 21.3791H15.9374Z" fill="url(#paint6_radial_3133_195)"/>
<path d="M7.9039 5.21535L7.25 7.16768L7.56865 7.81733C7.67686 8.04442 7.84263 8.23531 8.0475 8.36872C8.25236 8.50212 8.48827 8.57281 8.72893 8.5729H11.8841C12.2014 8.57285 12.5115 8.47291 12.7748 8.28582C13.0382 8.09873 13.2427 7.83299 13.3624 7.52253L13.418 7.37816C13.6369 6.81073 13.6385 6.1756 13.4223 5.60698C13.2062 5.03836 12.7892 4.58078 12.2596 4.33094L11.1268 3.82363C9.73979 3.28124 8.39177 3.85601 7.9039 5.21535Z" fill="url(#paint7_linear_3133_195)"/>
<path d="M7.9039 5.21535L7.25 7.16768L7.56865 7.81733C7.67686 8.04442 7.84263 8.23531 8.0475 8.36872C8.25236 8.50212 8.48827 8.57281 8.72893 8.5729H11.8841C12.2014 8.57285 12.5115 8.47291 12.7748 8.28582C13.0382 8.09873 13.2427 7.83299 13.3624 7.52253L13.418 7.37816C13.6369 6.81073 13.6385 6.1756 13.4223 5.60698C13.2062 5.03836 12.7892 4.58078 12.2596 4.33094L11.1268 3.82363C9.73979 3.28124 8.39177 3.85601 7.9039 5.21535Z" fill="url(#paint8_radial_3133_195)"/>
<path d="M7.9039 5.21535L7.25 7.16768L7.56865 7.81733C7.67686 8.04442 7.84263 8.23531 8.0475 8.36872C8.25236 8.50212 8.48827 8.57281 8.72893 8.5729H11.8841C12.2014 8.57285 12.5115 8.47291 12.7748 8.28582C13.0382 8.09873 13.2427 7.83299 13.3624 7.52253L13.418 7.37816C13.6369 6.81073 13.6385 6.1756 13.4223 5.60698C13.2062 5.03836 12.7892 4.58078 12.2596 4.33094L11.1268 3.82363C9.73979 3.28124 8.39177 3.85601 7.9039 5.21535Z" fill="url(#paint9_radial_3133_195)"/>
<g filter="url(#filter1_f_3133_195)">
<path d="M11.4464 14.2422L7.21582 20.1235H16.016L12.1015 14.2422H11.4464Z" fill="url(#paint10_linear_3133_195)"/>
<path d="M11.4464 14.2422L7.21582 20.1235H16.016L12.1015 14.2422H11.4464Z" fill="url(#paint11_radial_3133_195)"/>
<path d="M11.4464 14.2422L7.21582 20.1235H16.016L12.1015 14.2422H11.4464Z" fill="url(#paint12_radial_3133_195)"/>
</g>
<g filter="url(#filter2_f_3133_195)">
<path d="M10.541 4.69531L12.0627 5.35981C12.3194 5.45965 12.6438 5.81854 12.6783 6.34474C12.7154 6.89994 12.3437 7.34654 12.11 7.49967" stroke="url(#paint13_linear_3133_195)" stroke-width="1.23" stroke-linecap="round"/>
</g>
<path d="M11.633 6.47266H8.53973C7.82204 6.47266 7.24023 7.0873 7.24023 7.84549C7.24023 8.60369 7.82204 9.21833 8.53973 9.21833H11.633C12.3507 9.21833 12.9325 8.60369 12.9325 7.84549C12.9325 7.0873 12.3507 6.47266 11.633 6.47266Z" fill="url(#paint14_linear_3133_195)"/>
<path d="M11.633 6.47266H8.53973C7.82204 6.47266 7.24023 7.0873 7.24023 7.84549C7.24023 8.60369 7.82204 9.21833 8.53973 9.21833H11.633C12.3507 9.21833 12.9325 8.60369 12.9325 7.84549C12.9325 7.0873 12.3507 6.47266 11.633 6.47266Z" fill="url(#paint15_radial_3133_195)"/>
<path d="M11.633 6.47266H8.53973C7.82204 6.47266 7.24023 7.0873 7.24023 7.84549C7.24023 8.60369 7.82204 9.21833 8.53973 9.21833H11.633C12.3507 9.21833 12.9325 8.60369 12.9325 7.84549C12.9325 7.0873 12.3507 6.47266 11.633 6.47266Z" fill="url(#paint16_linear_3133_195)"/>
<path d="M11.633 6.47266H8.53973C7.82204 6.47266 7.24023 7.0873 7.24023 7.84549C7.24023 8.60369 7.82204 9.21833 8.53973 9.21833H11.633C12.3507 9.21833 12.9325 8.60369 12.9325 7.84549C12.9325 7.0873 12.3507 6.47266 11.633 6.47266Z" fill="url(#paint17_radial_3133_195)"/>
<path d="M10.0322 5.19141L9.61523 6.48666H12.0099L10.0322 5.19141Z" fill="url(#paint18_radial_3133_195)"/>
<g filter="url(#filter3_f_3133_195)">
<path d="M9.23534 5.07812L10.123 5.78444V6.49953H8.90137L9.23534 5.07812Z" fill="url(#paint19_linear_3133_195)"/>
</g>
<g filter="url(#filter4_f_3133_195)">
<path d="M18.5704 17.7297C20.1426 17.7297 21.4171 16.3832 21.4171 14.7223C21.4171 13.0613 20.1426 11.7148 18.5704 11.7148C16.9982 11.7148 15.7236 13.0613 15.7236 14.7223C15.7236 16.3832 16.9982 17.7297 18.5704 17.7297Z" fill="url(#paint20_radial_3133_195)"/>
</g>
<g filter="url(#filter5_f_3133_195)">
<path d="M8.6662 9.16797C8.34819 11.7113 7.25879 19.8673 7.25879 19.982L11.0506 14.2539L8.6662 9.16797Z" fill="url(#paint21_radial_3133_195)"/>
</g>
<defs>
<filter id="filter0_i_3133_195" x="4.56641" y="5.87547" width="18.5778" height="15.5034" filterUnits="userSpaceOnUse" color-interpolation-filters="sRGB">
<feFlood flood-opacity="0" result="BackgroundImageFix"/>
<feBlend mode="normal" in="SourceGraphic" in2="BackgroundImageFix" result="shape"/>
<feColorMatrix in="SourceAlpha" type="matrix" values="0 0 0 0 0 0 0 0 0 0 0 0 0 0 0 0 0 0 127 0" result="hardAlpha"/>
<feOffset dx="0.82" dy="-1.23"/>
<feGaussianBlur stdDeviation="1.23"/>
<feComposite in2="hardAlpha" operator="arithmetic" k2="-1" k3="1"/>
<feColorMatrix type="matrix" values="0 0 0 0 0.831373 0 0 0 0 0.619608 0 0 0 0 0.568627 0 0 0 1 0"/>
<feBlend mode="normal" in2="shape" result="effect1_innerShadow_3133_195"/>
</filter>
<filter id="filter1_f_3133_195" x="6.39582" y="13.4222" width="10.4398" height="7.52281" filterUnits="userSpaceOnUse" color-interpolation-filters="sRGB">
<feFlood flood-opacity="0" result="BackgroundImageFix"/>
<feBlend mode="normal" in="SourceGraphic" in2="BackgroundImageFix" result="shape"/>
<feGaussianBlur stdDeviation="0.41" result="effect1_foregroundBlur_3133_195"/>
</filter>
<filter id="filter2_f_3133_195" x="9.10578" y="3.26203" width="5.01012" height="5.67125" filterUnits="userSpaceOnUse" color-interpolation-filters="sRGB">
<feFlood flood-opacity="0" result="BackgroundImageFix"/>
<feBlend mode="normal" in="SourceGraphic" in2="BackgroundImageFix" result="shape"/>
<feGaussianBlur stdDeviation="0.41" result="effect1_foregroundBlur_3133_195"/>
</filter>
<filter id="filter3_f_3133_195" x="8.49137" y="4.66812" width="2.04168" height="2.24188" filterUnits="userSpaceOnUse" color-interpolation-filters="sRGB">
<feFlood flood-opacity="0" result="BackgroundImageFix"/>
<feBlend mode="normal" in="SourceGraphic" in2="BackgroundImageFix" result="shape"/>
<feGaussianBlur stdDeviation="0.205" result="effect1_foregroundBlur_3133_195"/>
</filter>
<filter id="filter4_f_3133_195" x="14.0836" y="10.0748" width="8.97336" height="9.29563" filterUnits="userSpaceOnUse" color-interpolation-filters="sRGB">
<feFlood flood-opacity="0" result="BackgroundImageFix"/>
<feBlend mode="normal" in="SourceGraphic" in2="BackgroundImageFix" result="shape"/>
<feGaussianBlur stdDeviation="0.82" result="effect1_foregroundBlur_3133_195"/>
</filter>
<filter id="filter5_f_3133_195" x="6.02879" y="7.93797" width="6.25199" height="13.2725" filterUnits="userSpaceOnUse" color-interpolation-filters="sRGB">
<feFlood flood-opacity="0" result="BackgroundImageFix"/>
<feBlend mode="normal" in="SourceGraphic" in2="BackgroundImageFix" result="shape"/>
<feGaussianBlur stdDeviation="0.615" result="effect1_foregroundBlur_3133_195"/>
</filter>
<radialGradient id="paint0_radial_3133_195" cx="0" cy="0" r="1" gradientUnits="userSpaceOnUse" gradientTransform="translate(20.4817 14.8637) rotate(154.772) scale(12.3659 12.3173)">
<stop stop-color="#FFDBBB"/>
<stop offset="1" stop-color="#ECB5A9"/>
</radialGradient>
<linearGradient id="paint1_linear_3133_195" x1="13.446" y1="22.6634" x2="13.446" y2="15.4956" gradientUnits="userSpaceOnUse">
<stop stop-color="#B47997"/>
<stop offset="1" stop-color="#B47997" stop-opacity="0"/>
</linearGradient>
<radialGradient id="paint2_radial_3133_195" cx="0" cy="0" r="1" gradientUnits="userSpaceOnUse" gradientTransform="translate(11.8292 13.0191) rotate(-90) scale(1.83795 0.926331)">
<stop stop-color="#D5997C"/>
<stop offset="1" stop-color="#D5997C" stop-opacity="0"/>
</radialGradient>
<radialGradient id="paint3_radial_3133_195" cx="0" cy="0" r="1" gradientUnits="userSpaceOnUse" gradientTransform="translate(9.07564 8.99095) rotate(173.305) scale(1.11635 2.11123)">
<stop stop-color="#D49176"/>
<stop offset="1" stop-color="#D49176" stop-opacity="0"/>
</radialGradient>
<radialGradient id="paint4_radial_3133_195" cx="0" cy="0" r="1" gradientUnits="userSpaceOnUse" gradientTransform="translate(14.5251 16.8867) rotate(164.903) scale(10.3152 15.9798)">
<stop offset="0.846" stop-color="#ECB19B" stop-opacity="0"/>
<stop offset="1" stop-color="#ECB19B"/>
</radialGradient>
<radialGradient id="paint5_radial_3133_195" cx="0" cy="0" r="1" gradientUnits="userSpaceOnUse" gradientTransform="translate(11.59 8.60238) rotate(108.994) scale(6.86702 2.03228)">
<stop stop-color="#FFDBBD"/>
<stop offset="1" stop-color="#FFDBBD" stop-opacity="0"/>
</radialGradient>
<radialGradient id="paint6_radial_3133_195" cx="0" cy="0" r="1" gradientUnits="userSpaceOnUse" gradientTransform="translate(21.6676 20.7256) rotate(-142.021) scale(16.1013 17.6684)">
<stop offset="0.47" stop-color="#DC9E81" stop-opacity="0"/>
<stop offset="1" stop-color="#DC9E81"/>
</radialGradient>
<linearGradient id="paint7_linear_3133_195" x1="8.59739" y1="7.73975" x2="14.3406" y2="6.25661" gradientUnits="userSpaceOnUse">
<stop stop-color="#E2AB9F"/>
<stop offset="1" stop-color="#FDC6AD"/>
</linearGradient>
<radialGradient id="paint8_radial_3133_195" cx="0" cy="0" r="1" gradientUnits="userSpaceOnUse" gradientTransform="translate(9.67448 7.80281) rotate(-31.5817) scale(4.58892 5.80642)">
<stop offset="0.79" stop-color="#FFE2C4" stop-opacity="0"/>
<stop offset="1" stop-color="#FFE2C4"/>
</radialGradient>
<radialGradient id="paint9_radial_3133_195" cx="0" cy="0" r="1" gradientUnits="userSpaceOnUse" gradientTransform="translate(10.5496 6.90687) rotate(-121.321) scale(3.64532 5.05197)">
<stop offset="0.742" stop-color="#C79B7A" stop-opacity="0"/>
<stop offset="1" stop-color="#C79B7A"/>
</radialGradient>
<linearGradient id="paint10_linear_3133_195" x1="11.6156" y1="12.7479" x2="11.6049" y2="19.6917" gradientUnits="userSpaceOnUse">
<stop stop-color="#F7BFA1"/>
<stop offset="1" stop-color="#F7BFA1" stop-opacity="0"/>
</linearGradient>
<radialGradient id="paint11_radial_3133_195" cx="0" cy="0" r="1" gradientUnits="userSpaceOnUse" gradientTransform="translate(9.87994 15.2325) rotate(35.3882) scale(1.41971 2.874)">
<stop stop-color="#FFD9C0"/>
<stop offset="1" stop-color="#FFD9C0" stop-opacity="0"/>
</radialGradient>
<radialGradient id="paint12_radial_3133_195" cx="0" cy="0" r="1" gradientUnits="userSpaceOnUse" gradientTransform="translate(13.8372 16.0614) rotate(142.397) scale(1.26702 5.47295)">
<stop offset="0.231" stop-color="#D99877"/>
<stop offset="1" stop-color="#D99877" stop-opacity="0"/>
</radialGradient>
<linearGradient id="paint13_linear_3133_195" x1="12.6885" y1="6.34744" x2="10.2151" y2="5.31698" gradientUnits="userSpaceOnUse">
<stop stop-color="#FFE6CA"/>
<stop offset="1" stop-color="#FFE6CA" stop-opacity="0"/>
</linearGradient>
<linearGradient id="paint14_linear_3133_195" x1="8.77664" y1="8.16458" x2="12.4484" y2="8.16458" gradientUnits="userSpaceOnUse">
<stop stop-color="#E2AB9F"/>
<stop offset="1" stop-color="#F9C6A8"/>
</linearGradient>
<radialGradient id="paint15_radial_3133_195" cx="0" cy="0" r="1" gradientUnits="userSpaceOnUse" gradientTransform="translate(12.0687 7.67924) rotate(135.783) scale(1.05804 0.926192)">
<stop stop-color="#FFE4C9"/>
<stop offset="1" stop-color="#FFE4C9" stop-opacity="0"/>
</radialGradient>
<linearGradient id="paint16_linear_3133_195" x1="10.0863" y1="9.35257" x2="10.0863" y2="7.84549" gradientUnits="userSpaceOnUse">
<stop stop-color="#DB9788"/>
<stop offset="1" stop-color="#DB9788" stop-opacity="0"/>
</linearGradient>
<radialGradient id="paint17_radial_3133_195" cx="0" cy="0" r="1" gradientUnits="userSpaceOnUse" gradientTransform="translate(12.9325 7.84549) rotate(180) scale(5.69226 4.74674)">
<stop offset="0.903" stop-color="#E9B098" stop-opacity="0"/>
<stop offset="1" stop-color="#E9B098"/>
</radialGradient>
<radialGradient id="paint18_radial_3133_195" cx="0" cy="0" r="1" gradientUnits="userSpaceOnUse" gradientTransform="translate(10.568 6.5892) rotate(-90) scale(0.817717 0.939428)">
<stop stop-color="#A76040"/>
<stop offset="1" stop-color="#D8916C" stop-opacity="0"/>
</radialGradient>
<linearGradient id="paint19_linear_3133_195" x1="9.86369" y1="5.80536" x2="9.48999" y2="6.62081" gradientUnits="userSpaceOnUse">
<stop stop-color="#FFCDB6"/>
<stop offset="1" stop-color="#FFCDB6" stop-opacity="0"/>
</linearGradient>
<radialGradient id="paint20_radial_3133_195" cx="0" cy="0" r="1" gradientUnits="userSpaceOnUse" gradientTransform="translate(21.0322 13.1612) rotate(142.858) scale(3.72773 6.41641)">
<stop stop-color="#FFE9CA"/>
<stop offset="1" stop-color="#FFE9CA" stop-opacity="0"/>
</radialGradient>
<radialGradient id="paint21_radial_3133_195" cx="0" cy="0" r="1" gradientUnits="userSpaceOnUse" gradientTransform="translate(10.3465 15.8844) rotate(-101.376) scale(10.1301 3.3597)">
<stop stop-color="#FFE2C3"/>
<stop offset="1" stop-color="#FFE2C3" stop-opacity="0"/>
</radialGradient>
</defs>
</svg>
