<svg width="25" height="25" viewBox="0 0 25 25" fill="none" xmlns="http://www.w3.org/2000/svg">
<path d="M16.8423 4.15754C17.0158 3.98413 17.2511 3.88672 17.4965 3.88672C17.7418 3.88672 17.9771 3.98413 18.1506 4.15754L20.8416 6.84804C21.0151 7.02151 21.1125 7.25674 21.1125 7.50201C21.1125 7.74729 21.0151 7.98252 20.8416 8.15598L8.47061 20.525L4.4707 16.5259L16.8423 4.15754Z" fill="url(#paint0_radial_3133_192)"/>
<path d="M16.8423 4.15754C17.0158 3.98413 17.2511 3.88672 17.4965 3.88672C17.7418 3.88672 17.9771 3.98413 18.1506 4.15754L20.8416 6.84804C21.0151 7.02151 21.1125 7.25674 21.1125 7.50201C21.1125 7.74729 21.0151 7.98252 20.8416 8.15598L8.47061 20.525L4.4707 16.5259L16.8423 4.15754Z" fill="url(#paint1_linear_3133_192)"/>
<path d="M16.8423 4.15754C17.0158 3.98413 17.2511 3.88672 17.4965 3.88672C17.7418 3.88672 17.9771 3.98413 18.1506 4.15754L20.8416 6.84804C21.0151 7.02151 21.1125 7.25674 21.1125 7.50201C21.1125 7.74729 21.0151 7.98252 20.8416 8.15598L8.47061 20.525L4.4707 16.5259L16.8423 4.15754Z" fill="url(#paint2_linear_3133_192)"/>
<path d="M16.8423 4.15754C17.0158 3.98413 17.2511 3.88672 17.4965 3.88672C17.7418 3.88672 17.9771 3.98413 18.1506 4.15754L20.8416 6.84804C21.0151 7.02151 21.1125 7.25674 21.1125 7.50201C21.1125 7.74729 21.0151 7.98252 20.8416 8.15598L8.47061 20.525L4.4707 16.5259L16.8423 4.15754Z" fill="url(#paint3_radial_3133_192)"/>
<path d="M3.88923 20.9751C3.8875 20.9933 3.88981 21.0116 3.89599 21.0287C3.90218 21.0458 3.91209 21.0614 3.925 21.0742C3.93792 21.0871 3.95352 21.0969 3.97069 21.103C3.98786 21.1091 4.00617 21.1114 4.02431 21.1096L8.05814 20.7217C8.17446 20.7106 8.28526 20.6668 8.37764 20.5953L8.472 20.5225L4.47272 16.5234L4.41042 16.5987C4.33188 16.6939 4.28375 16.8106 4.27226 16.9335L3.88923 20.9751Z" fill="url(#paint4_linear_3133_192)"/>
<path d="M3.88923 20.9751C3.8875 20.9933 3.88981 21.0116 3.89599 21.0287C3.90218 21.0458 3.91209 21.0614 3.925 21.0742C3.93792 21.0871 3.95352 21.0969 3.97069 21.103C3.98786 21.1091 4.00617 21.1114 4.02431 21.1096L8.05814 20.7217C8.17446 20.7106 8.28526 20.6668 8.37764 20.5953L8.472 20.5225L4.47272 16.5234L4.41042 16.5987C4.33188 16.6939 4.28375 16.8106 4.27226 16.9335L3.88923 20.9751Z" fill="url(#paint5_linear_3133_192)"/>
<path d="M3.88923 20.9751C3.8875 20.9933 3.88981 21.0116 3.89599 21.0287C3.90218 21.0458 3.91209 21.0614 3.925 21.0742C3.93792 21.0871 3.95352 21.0969 3.97069 21.103C3.98786 21.1091 4.00617 21.1114 4.02431 21.1096L8.05814 20.7217C8.17446 20.7106 8.28526 20.6668 8.37764 20.5953L8.472 20.5225L4.47272 16.5234L4.41042 16.5987C4.33188 16.6939 4.28375 16.8106 4.27226 16.9335L3.88923 20.9751Z" fill="url(#paint6_linear_3133_192)"/>
<path d="M18.8814 10.1182L20.8428 8.15598C21.0162 7.98252 21.1137 7.74729 21.1137 7.50201C21.1137 7.25674 21.0162 7.0215 20.8428 6.84804L18.1517 4.15754C17.9782 3.98413 17.7429 3.88672 17.4976 3.88672C17.2523 3.88672 17.017 3.98413 16.8435 4.15754L14.8809 6.11976L18.8814 10.1182Z" fill="url(#paint7_linear_3133_192)"/>
<path d="M18.8814 10.1182L20.8428 8.15598C21.0162 7.98252 21.1137 7.74729 21.1137 7.50201C21.1137 7.25674 21.0162 7.0215 20.8428 6.84804L18.1517 4.15754C17.9782 3.98413 17.7429 3.88672 17.4976 3.88672C17.2523 3.88672 17.017 3.98413 16.8435 4.15754L14.8809 6.11976L18.8814 10.1182Z" fill="url(#paint8_linear_3133_192)"/>
<path d="M18.8814 10.1182L20.8428 8.15598C21.0162 7.98252 21.1137 7.74729 21.1137 7.50201C21.1137 7.25674 21.0162 7.0215 20.8428 6.84804L18.1517 4.15754C17.9782 3.98413 17.7429 3.88672 17.4976 3.88672C17.2523 3.88672 17.017 3.98413 16.8435 4.15754L14.8809 6.11976L18.8814 10.1182Z" fill="url(#paint9_radial_3133_192)"/>
<path d="M12.9141 8.08825L14.8816 6.12109L18.8809 10.1202L16.9134 12.0873L12.9141 8.08825Z" fill="url(#paint10_linear_3133_192)"/>
<path d="M12.9141 8.08825L14.8816 6.12109L18.8809 10.1202L16.9134 12.0873L12.9141 8.08825Z" fill="url(#paint11_linear_3133_192)"/>
<path d="M4.02431 21.1114C4.00617 21.1132 3.98786 21.1109 3.97069 21.1048C3.95352 21.0987 3.93792 21.0889 3.925 21.076C3.91209 21.0632 3.90218 21.0476 3.89599 21.0305C3.88981 21.0134 3.8875 20.9951 3.88923 20.9769L4.02369 19.5586L5.43985 20.9751L4.02431 21.1114Z" fill="url(#paint12_linear_3133_192)"/>
<defs>
<radialGradient id="paint0_radial_3133_192" cx="0" cy="0" r="1" gradientUnits="userSpaceOnUse" gradientTransform="translate(6.45678 18.6454) rotate(-45.6376) scale(12.1295 7.52398)">
<stop stop-color="#FF9130"/>
<stop offset="1" stop-color="#F3633D"/>
</radialGradient>
<linearGradient id="paint1_linear_3133_192" x1="8.88509" y1="11.785" x2="9.84895" y2="12.7102" gradientUnits="userSpaceOnUse">
<stop stop-color="#EE9B6A"/>
<stop offset="1" stop-color="#EE9B6A" stop-opacity="0"/>
</linearGradient>
<linearGradient id="paint2_linear_3133_192" x1="15.362" y1="14.0204" x2="14.2058" y2="13.057" gradientUnits="userSpaceOnUse">
<stop stop-color="#E66A62"/>
<stop offset="1" stop-color="#E66A62" stop-opacity="0"/>
</linearGradient>
<radialGradient id="paint3_radial_3133_192" cx="0" cy="0" r="1" gradientUnits="userSpaceOnUse" gradientTransform="translate(6.30258 18.5301) rotate(-44.8545) scale(11.2022 2.505)">
<stop stop-color="#FF994D"/>
<stop offset="1" stop-color="#FF994D" stop-opacity="0"/>
</radialGradient>
<linearGradient id="paint4_linear_3133_192" x1="5.03215" y1="18.7009" x2="6.65074" y2="21.2449" gradientUnits="userSpaceOnUse">
<stop stop-color="#D8A587"/>
<stop offset="1" stop-color="#CE7A98"/>
</linearGradient>
<linearGradient id="paint5_linear_3133_192" x1="6.93989" y1="18.8168" x2="6.61738" y2="19.1437" gradientUnits="userSpaceOnUse">
<stop offset="0.207" stop-color="#FFC09F"/>
<stop offset="1" stop-color="#FCB196" stop-opacity="0"/>
</linearGradient>
<linearGradient id="paint6_linear_3133_192" x1="3.56726" y1="18.6041" x2="4.87794" y2="18.72" gradientUnits="userSpaceOnUse">
<stop stop-color="#DEBCA3"/>
<stop offset="1" stop-color="#DEBCA3" stop-opacity="0"/>
</linearGradient>
<linearGradient id="paint7_linear_3133_192" x1="19.9509" y1="5.65727" x2="17.4072" y2="8.16269" gradientUnits="userSpaceOnUse">
<stop stop-color="#FF6153"/>
<stop offset="1" stop-color="#FF6154"/>
</linearGradient>
<linearGradient id="paint8_linear_3133_192" x1="15.4409" y1="5.42602" x2="17.4451" y2="7.27643" gradientUnits="userSpaceOnUse">
<stop stop-color="#F1553E"/>
<stop offset="1" stop-color="#F1553E" stop-opacity="0"/>
</linearGradient>
<radialGradient id="paint9_radial_3133_192" cx="0" cy="0" r="1" gradientUnits="userSpaceOnUse" gradientTransform="translate(19.4301 6.23517) rotate(135.006) scale(0.84493 1.91942)">
<stop offset="0.177" stop-color="#FF786D"/>
<stop offset="1" stop-color="#FF786D" stop-opacity="0"/>
</radialGradient>
<linearGradient id="paint10_linear_3133_192" x1="13.9367" y1="7.16202" x2="16.4805" y2="9.47504" gradientUnits="userSpaceOnUse">
<stop stop-color="#C5C4CB"/>
<stop offset="1" stop-color="#E8DEFA"/>
</linearGradient>
<linearGradient id="paint11_linear_3133_192" x1="17.9459" y1="11.4787" x2="16.5201" y2="10.0909" gradientUnits="userSpaceOnUse">
<stop stop-color="#C9B9E0"/>
<stop offset="1" stop-color="#C9B9E0" stop-opacity="0"/>
</linearGradient>
<linearGradient id="paint12_linear_3133_192" x1="4.01012" y1="20.2055" x2="4.66436" y2="21.1121" gradientUnits="userSpaceOnUse">
<stop stop-color="#461E49"/>
<stop offset="1" stop-color="#450F51"/>
</linearGradient>
</defs>
</svg>
