<svg width="25" height="25" viewBox="0 0 25 25" fill="none" xmlns="http://www.w3.org/2000/svg">
<g filter="url(#filter0_ii_3094_10268)">
<path d="M2.84372 9.56797C3.50778 8.95312 4.58278 8.79297 5.10153 8.79297H8.41013C10.1984 8.79297 11.7242 9.66016 11.5961 11.5586C11.3883 14.1758 9.53278 16.2148 6.80466 16.2148C4.107 16.2148 2.732 14.1367 2.34294 12.8211C1.95388 11.5063 2.01403 10.3367 2.84372 9.56797Z" fill="url(#paint0_radial_3094_10268)"/>
<path d="M2.84372 9.56797C3.50778 8.95312 4.58278 8.79297 5.10153 8.79297H8.41013C10.1984 8.79297 11.7242 9.66016 11.5961 11.5586C11.3883 14.1758 9.53278 16.2148 6.80466 16.2148C4.107 16.2148 2.732 14.1367 2.34294 12.8211C1.95388 11.5063 2.01403 10.3367 2.84372 9.56797Z" fill="url(#paint1_radial_3094_10268)"/>
<path d="M2.84372 9.56797C3.50778 8.95312 4.58278 8.79297 5.10153 8.79297H8.41013C10.1984 8.79297 11.7242 9.66016 11.5961 11.5586C11.3883 14.1758 9.53278 16.2148 6.80466 16.2148C4.107 16.2148 2.732 14.1367 2.34294 12.8211C1.95388 11.5063 2.01403 10.3367 2.84372 9.56797Z" fill="url(#paint2_radial_3094_10268)"/>
</g>
<g filter="url(#filter1_ii_3094_10268)">
<path d="M22.1603 9.56797C21.4962 8.95312 20.4204 8.79297 19.9017 8.79297H16.5939C14.8048 8.79297 13.2798 9.66016 13.4079 11.5586C13.615 14.1758 15.4704 16.2148 18.1985 16.2148C20.8962 16.2148 22.2712 14.1367 22.6603 12.8211C23.0493 11.5063 22.99 10.3367 22.1603 9.56797Z" fill="url(#paint3_radial_3094_10268)"/>
<path d="M22.1603 9.56797C21.4962 8.95312 20.4204 8.79297 19.9017 8.79297H16.5939C14.8048 8.79297 13.2798 9.66016 13.4079 11.5586C13.615 14.1758 15.4704 16.2148 18.1985 16.2148C20.8962 16.2148 22.2712 14.1367 22.6603 12.8211C23.0493 11.5063 22.99 10.3367 22.1603 9.56797Z" fill="url(#paint4_radial_3094_10268)"/>
<path d="M22.1603 9.56797C21.4962 8.95312 20.4204 8.79297 19.9017 8.79297H16.5939C14.8048 8.79297 13.2798 9.66016 13.4079 11.5586C13.615 14.1758 15.4704 16.2148 18.1985 16.2148C20.8962 16.2148 22.2712 14.1367 22.6603 12.8211C23.0493 11.5063 22.99 10.3367 22.1603 9.56797Z" fill="url(#paint5_radial_3094_10268)"/>
</g>
<g filter="url(#filter2_i_3094_10268)">
<path fill-rule="evenodd" clip-rule="evenodd" d="M12.2119 11.6039C12.0533 14.4633 10.0689 16.8008 6.80404 16.8008C3.74623 16.8008 2.21029 14.4398 1.7806 12.9883C1.36888 11.5977 1.36654 10.1367 2.44466 9.13828C2.86888 8.74531 3.40013 8.51719 3.8681 8.38594C4.26946 8.2727 4.68392 8.21255 5.10091 8.20703H8.40951C9.38607 8.20703 10.4259 8.44141 11.1494 8.99922C11.3228 9.13203 11.4759 9.28203 11.6087 9.44687C11.7165 9.55703 11.9033 9.72656 12.1142 9.72656H12.8798C13.1212 9.72656 13.3314 9.50391 13.4267 9.40313L13.4259 9.40703C13.5509 9.25781 13.6939 9.12187 13.8525 8.99922C14.5759 8.44219 15.6165 8.20703 16.5931 8.20703H19.9009C20.2103 8.20703 20.6626 8.25391 21.1337 8.38594C21.6017 8.51719 22.1337 8.74531 22.5572 9.13828C23.6353 10.1367 23.6329 11.5977 23.2212 12.9875C22.7915 14.4398 21.2556 16.8008 18.1978 16.8008C14.9322 16.8008 12.9494 14.4633 12.79 11.6039V11.5977C12.7818 11.4809 12.7787 11.3639 12.7806 11.2469C12.7757 11.1776 12.7448 11.1127 12.6941 11.0652C12.6434 11.0177 12.5766 10.991 12.5072 10.9906C12.4317 10.9906 12.3593 11.0206 12.3058 11.0739C12.2523 11.1272 12.2222 11.1995 12.222 11.275V11.2828C12.222 11.3859 12.2197 11.4906 12.2119 11.5977V11.6039ZM11.5947 11.5578C11.7236 9.65937 10.1978 8.79297 8.40872 8.79297H5.10091C4.58216 8.79297 3.50716 8.95312 2.8431 9.56797C2.01263 10.3375 1.95247 11.5055 2.34232 12.8211C2.73138 14.1367 4.10638 16.2148 6.80326 16.2148C9.53216 16.2148 11.3876 14.1758 11.5954 11.5586M13.4079 11.5586C13.2798 9.66016 14.8056 8.79375 16.5939 8.79375H19.9017C20.4204 8.79375 21.4954 8.95391 22.1595 9.56875C22.99 10.3383 23.0501 11.5062 22.6603 12.8219C22.2712 14.1375 20.8962 16.2156 18.1994 16.2156C15.4704 16.2156 13.615 14.1766 13.4079 11.5594" fill="url(#paint6_linear_3094_10268)"/>
<path fill-rule="evenodd" clip-rule="evenodd" d="M12.2119 11.6039C12.0533 14.4633 10.0689 16.8008 6.80404 16.8008C3.74623 16.8008 2.21029 14.4398 1.7806 12.9883C1.36888 11.5977 1.36654 10.1367 2.44466 9.13828C2.86888 8.74531 3.40013 8.51719 3.8681 8.38594C4.26946 8.2727 4.68392 8.21255 5.10091 8.20703H8.40951C9.38607 8.20703 10.4259 8.44141 11.1494 8.99922C11.3228 9.13203 11.4759 9.28203 11.6087 9.44687C11.7165 9.55703 11.9033 9.72656 12.1142 9.72656H12.8798C13.1212 9.72656 13.3314 9.50391 13.4267 9.40313L13.4259 9.40703C13.5509 9.25781 13.6939 9.12187 13.8525 8.99922C14.5759 8.44219 15.6165 8.20703 16.5931 8.20703H19.9009C20.2103 8.20703 20.6626 8.25391 21.1337 8.38594C21.6017 8.51719 22.1337 8.74531 22.5572 9.13828C23.6353 10.1367 23.6329 11.5977 23.2212 12.9875C22.7915 14.4398 21.2556 16.8008 18.1978 16.8008C14.9322 16.8008 12.9494 14.4633 12.79 11.6039V11.5977C12.7818 11.4809 12.7787 11.3639 12.7806 11.2469C12.7757 11.1776 12.7448 11.1127 12.6941 11.0652C12.6434 11.0177 12.5766 10.991 12.5072 10.9906C12.4317 10.9906 12.3593 11.0206 12.3058 11.0739C12.2523 11.1272 12.2222 11.1995 12.222 11.275V11.2828C12.222 11.3859 12.2197 11.4906 12.2119 11.5977V11.6039ZM11.5947 11.5578C11.7236 9.65937 10.1978 8.79297 8.40872 8.79297H5.10091C4.58216 8.79297 3.50716 8.95312 2.8431 9.56797C2.01263 10.3375 1.95247 11.5055 2.34232 12.8211C2.73138 14.1367 4.10638 16.2148 6.80326 16.2148C9.53216 16.2148 11.3876 14.1758 11.5954 11.5586M13.4079 11.5586C13.2798 9.66016 14.8056 8.79375 16.5939 8.79375H19.9017C20.4204 8.79375 21.4954 8.95391 22.1595 9.56875C22.99 10.3383 23.0501 11.5062 22.6603 12.8219C22.2712 14.1375 20.8962 16.2156 18.1994 16.2156C15.4704 16.2156 13.615 14.1766 13.4079 11.5594" fill="url(#paint7_radial_3094_10268)"/>
</g>
<path d="M21.6495 10.2209C22.0237 10.8412 21.9229 11.5881 21.4237 11.8888C20.9253 12.1896 20.2174 11.9302 19.8432 11.3092C19.469 10.6881 19.5698 9.94197 20.069 9.64041C20.5682 9.34041 21.2753 9.59978 21.6495 10.2209Z" fill="url(#paint8_radial_3094_10268)"/>
<path d="M10.3213 10.2209C10.6956 10.8412 10.5948 11.5881 10.0956 11.8888C9.59713 12.1896 8.88931 11.9302 8.5151 11.3092C8.14088 10.6881 8.24166 9.94197 8.74088 9.64041C9.2401 9.34041 9.94713 9.59978 10.3213 10.2209Z" fill="url(#paint9_radial_3094_10268)"/>
<g filter="url(#filter3_f_3094_10268)">
<path d="M22.3317 9.44922C21.6348 8.79844 20.5059 8.62891 19.9614 8.62891H16.4903C14.6137 8.62891 13.0122 9.54688 13.1466 11.5555C13.3653 14.3258 15.3114 16.4836 18.1747 16.4836C21.0059 16.4836 22.4481 14.2844 22.8567 12.8922C23.2653 11.5008 23.2028 10.2625 22.3317 9.44922Z" stroke="url(#paint10_radial_3094_10268)" stroke-width="0.246"/>
</g>
<g filter="url(#filter4_f_3094_10268)">
<path d="M11.068 9.44922C10.3712 8.79844 9.24304 8.62891 8.69851 8.62891H5.22664C3.35008 8.62891 1.74851 9.54688 1.88289 11.5555C2.10164 14.3258 4.04851 16.4836 6.91101 16.4836C9.74226 16.4836 11.1845 14.2844 11.593 12.8922C12.0016 11.5008 11.9391 10.2625 11.068 9.44922Z" stroke="url(#paint11_radial_3094_10268)" stroke-width="0.246"/>
</g>
<defs>
<filter id="filter0_ii_3094_10268" x="2.02933" y="8.71097" width="9.77919" height="7.70888" filterUnits="userSpaceOnUse" color-interpolation-filters="sRGB">
<feFlood flood-opacity="0" result="BackgroundImageFix"/>
<feBlend mode="normal" in="SourceGraphic" in2="BackgroundImageFix" result="shape"/>
<feColorMatrix in="SourceAlpha" type="matrix" values="0 0 0 0 0 0 0 0 0 0 0 0 0 0 0 0 0 0 127 0" result="hardAlpha"/>
<feOffset dx="0.205" dy="0.205"/>
<feGaussianBlur stdDeviation="0.41"/>
<feComposite in2="hardAlpha" operator="arithmetic" k2="-1" k3="1"/>
<feColorMatrix type="matrix" values="0 0 0 0 0.121569 0 0 0 0 0.0666667 0 0 0 0 0.278431 0 0 0 1 0"/>
<feBlend mode="normal" in2="shape" result="effect1_innerShadow_3094_10268"/>
<feColorMatrix in="SourceAlpha" type="matrix" values="0 0 0 0 0 0 0 0 0 0 0 0 0 0 0 0 0 0 127 0" result="hardAlpha"/>
<feOffset dx="-0.082" dy="-0.082"/>
<feGaussianBlur stdDeviation="0.0615"/>
<feComposite in2="hardAlpha" operator="arithmetic" k2="-1" k3="1"/>
<feColorMatrix type="matrix" values="0 0 0 0 0.219608 0 0 0 0 0.121569 0 0 0 0 0.384314 0 0 0 1 0"/>
<feBlend mode="normal" in2="effect1_innerShadow_3094_10268" result="effect2_innerShadow_3094_10268"/>
</filter>
<filter id="filter1_ii_3094_10268" x="13.3184" y="8.71097" width="9.77919" height="7.70888" filterUnits="userSpaceOnUse" color-interpolation-filters="sRGB">
<feFlood flood-opacity="0" result="BackgroundImageFix"/>
<feBlend mode="normal" in="SourceGraphic" in2="BackgroundImageFix" result="shape"/>
<feColorMatrix in="SourceAlpha" type="matrix" values="0 0 0 0 0 0 0 0 0 0 0 0 0 0 0 0 0 0 127 0" result="hardAlpha"/>
<feOffset dx="0.205" dy="0.205"/>
<feGaussianBlur stdDeviation="0.41"/>
<feComposite in2="hardAlpha" operator="arithmetic" k2="-1" k3="1"/>
<feColorMatrix type="matrix" values="0 0 0 0 0.121569 0 0 0 0 0.0666667 0 0 0 0 0.278431 0 0 0 1 0"/>
<feBlend mode="normal" in2="shape" result="effect1_innerShadow_3094_10268"/>
<feColorMatrix in="SourceAlpha" type="matrix" values="0 0 0 0 0 0 0 0 0 0 0 0 0 0 0 0 0 0 127 0" result="hardAlpha"/>
<feOffset dx="-0.082" dy="-0.082"/>
<feGaussianBlur stdDeviation="0.0615"/>
<feComposite in2="hardAlpha" operator="arithmetic" k2="-1" k3="1"/>
<feColorMatrix type="matrix" values="0 0 0 0 0.219608 0 0 0 0 0.121569 0 0 0 0 0.384314 0 0 0 1 0"/>
<feBlend mode="normal" in2="effect1_innerShadow_3094_10268" result="effect2_innerShadow_3094_10268"/>
</filter>
<filter id="filter2_i_3094_10268" x="1.52539" y="8.20703" width="21.9512" height="8.75775" filterUnits="userSpaceOnUse" color-interpolation-filters="sRGB">
<feFlood flood-opacity="0" result="BackgroundImageFix"/>
<feBlend mode="normal" in="SourceGraphic" in2="BackgroundImageFix" result="shape"/>
<feColorMatrix in="SourceAlpha" type="matrix" values="0 0 0 0 0 0 0 0 0 0 0 0 0 0 0 0 0 0 127 0" result="hardAlpha"/>
<feOffset dy="0.164"/>
<feGaussianBlur stdDeviation="0.082"/>
<feComposite in2="hardAlpha" operator="arithmetic" k2="-1" k3="1"/>
<feColorMatrix type="matrix" values="0 0 0 0 0.329412 0 0 0 0 0.282353 0 0 0 0 0.568627 0 0 0 1 0"/>
<feBlend mode="normal" in2="shape" result="effect1_innerShadow_3094_10268"/>
</filter>
<filter id="filter3_f_3094_10268" x="12.8516" y="8.34381" width="10.535" height="8.42566" filterUnits="userSpaceOnUse" color-interpolation-filters="sRGB">
<feFlood flood-opacity="0" result="BackgroundImageFix"/>
<feBlend mode="normal" in="SourceGraphic" in2="BackgroundImageFix" result="shape"/>
<feGaussianBlur stdDeviation="0.082" result="effect1_foregroundBlur_3094_10268"/>
</filter>
<filter id="filter4_f_3094_10268" x="1.58795" y="8.34381" width="10.535" height="8.42566" filterUnits="userSpaceOnUse" color-interpolation-filters="sRGB">
<feFlood flood-opacity="0" result="BackgroundImageFix"/>
<feBlend mode="normal" in="SourceGraphic" in2="BackgroundImageFix" result="shape"/>
<feGaussianBlur stdDeviation="0.082" result="effect1_foregroundBlur_3094_10268"/>
</filter>
<radialGradient id="paint0_radial_3094_10268" cx="0" cy="0" r="1" gradientUnits="userSpaceOnUse" gradientTransform="translate(5.38825 9.57422) rotate(67.5862) scale(6.78715 7.51185)">
<stop offset="0.365" stop-color="#311F5E"/>
<stop offset="0.954" stop-color="#4F1373"/>
</radialGradient>
<radialGradient id="paint1_radial_3094_10268" cx="0" cy="0" r="1" gradientUnits="userSpaceOnUse" gradientTransform="translate(4.38747 13.3344) rotate(-18.3151) scale(7.38072 9.10719)">
<stop offset="0.893" stop-color="#4D4176" stop-opacity="0"/>
<stop offset="0.976" stop-color="#4D4176"/>
</radialGradient>
<radialGradient id="paint2_radial_3094_10268" cx="0" cy="0" r="1" gradientUnits="userSpaceOnUse" gradientTransform="translate(11.0436 10.575) rotate(162.06) scale(6.26148 3.30381)">
<stop offset="0.145" stop-color="#51477A"/>
<stop offset="1" stop-color="#51477A" stop-opacity="0"/>
</radialGradient>
<radialGradient id="paint3_radial_3094_10268" cx="0" cy="0" r="1" gradientUnits="userSpaceOnUse" gradientTransform="translate(16.6775 9.57422) rotate(67.5862) scale(6.78715 7.51185)">
<stop offset="0.365" stop-color="#311F5E"/>
<stop offset="0.954" stop-color="#4F1373"/>
</radialGradient>
<radialGradient id="paint4_radial_3094_10268" cx="0" cy="0" r="1" gradientUnits="userSpaceOnUse" gradientTransform="translate(15.6767 13.3344) rotate(-18.3151) scale(7.38072 9.10719)">
<stop offset="0.893" stop-color="#4D4176" stop-opacity="0"/>
<stop offset="0.976" stop-color="#4D4176"/>
</radialGradient>
<radialGradient id="paint5_radial_3094_10268" cx="0" cy="0" r="1" gradientUnits="userSpaceOnUse" gradientTransform="translate(22.3314 10.5761) rotate(162.06) scale(6.26148 3.30381)">
<stop offset="0.145" stop-color="#51477A"/>
<stop offset="1" stop-color="#51477A" stop-opacity="0"/>
</radialGradient>
<linearGradient id="paint6_linear_3094_10268" x1="12.5009" y1="8.20703" x2="12.5009" y2="15.9953" gradientUnits="userSpaceOnUse">
<stop offset="0.29" stop-color="#5C4EA3"/>
<stop offset="1" stop-color="#5C278D"/>
</linearGradient>
<radialGradient id="paint7_radial_3094_10268" cx="0" cy="0" r="1" gradientUnits="userSpaceOnUse" gradientTransform="translate(13.64 10.4898) rotate(-169.739) scale(1.43903 0.839688)">
<stop offset="0.325" stop-color="#6A57A0"/>
<stop offset="1" stop-color="#6A57A0" stop-opacity="0"/>
</radialGradient>
<radialGradient id="paint8_radial_3094_10268" cx="0" cy="0" r="1" gradientUnits="userSpaceOnUse" gradientTransform="translate(21.1847 12.161) rotate(-113.728) scale(2.42684 7.60061)">
<stop offset="0.259" stop-color="#E5DBF4" stop-opacity="0"/>
<stop offset="1" stop-color="#E5DBF4"/>
</radialGradient>
<radialGradient id="paint9_radial_3094_10268" cx="0" cy="0" r="1" gradientUnits="userSpaceOnUse" gradientTransform="translate(10.0021 11.6727) rotate(-122.939) scale(2.06541 6.46864)">
<stop offset="0.259" stop-color="#E5DBF4" stop-opacity="0"/>
<stop offset="1" stop-color="#E5DBF4"/>
</radialGradient>
<radialGradient id="paint10_radial_3094_10268" cx="0" cy="0" r="1" gradientUnits="userSpaceOnUse" gradientTransform="translate(13.5781 13.7489) rotate(-34.638) scale(3.07118 3.92184)">
<stop stop-color="#624A93"/>
<stop offset="1" stop-color="#624A93" stop-opacity="0"/>
</radialGradient>
<radialGradient id="paint11_radial_3094_10268" cx="0" cy="0" r="1" gradientUnits="userSpaceOnUse" gradientTransform="translate(2.31486 13.749) rotate(-34.638) scale(3.07118 3.92184)">
<stop stop-color="#55377A"/>
<stop offset="1" stop-color="#55377A" stop-opacity="0"/>
</radialGradient>
</defs>
</svg>
