<svg width="14" height="14" viewBox="0 0 14 14" fill="none" xmlns="http://www.w3.org/2000/svg">
<path fill-rule="evenodd" clip-rule="evenodd" d="M7.64415 2.43789L8.71014 4.56749C8.81461 4.77656 9.01627 4.92153 9.25012 4.95507L11.6348 5.29833C12.224 5.38339 12.4584 6.09745 12.032 6.5066L10.3076 8.16356C10.1381 8.3265 10.061 8.56072 10.1011 8.79076L10.508 11.13C10.6083 11.7087 9.99236 12.1502 9.46575 11.8764L7.33437 10.7712C7.12543 10.6628 6.87518 10.6628 6.66563 10.7712L4.53425 11.8764C4.00763 12.1502 3.39173 11.7087 3.49256 11.13L3.89891 8.79076C3.939 8.56072 3.86186 8.3265 3.69239 8.16356L1.96798 6.5066C1.54158 6.09745 1.77604 5.38339 2.36522 5.29833L4.74988 4.95507C4.98373 4.92153 5.18599 4.77656 5.29047 4.56749L6.35585 2.43789C6.61946 1.91133 7.38054 1.91133 7.64415 2.43789Z" stroke="#BDBDC8" stroke-linecap="round" stroke-linejoin="round"/>
</svg>
