<svg width="12" height="11" viewBox="0 0 12 11" fill="none" xmlns="http://www.w3.org/2000/svg">
<path d="M3.3 0.500001L3.30035 0.500001C3.74961 0.499683 4.19232 0.607621 4.59102 0.814676C4.98971 1.02173 5.33264 1.32181 5.59078 1.68949C5.68432 1.82274 5.83688 1.9021 5.99969 1.9022C6.16249 1.9023 6.31515 1.82314 6.40886 1.69001C6.91618 0.969306 7.75347 0.500001 8.7 0.500001C10.2464 0.500001 11.5 1.75364 11.5 3.3C11.5 4.75794 10.6305 6.21281 9.43221 7.42291C8.30241 8.56388 6.9562 9.40951 6 9.76752C5.0438 9.40951 3.69759 8.56388 2.56779 7.42291C1.36952 6.21281 0.5 4.75794 0.5 3.3C0.5 1.75364 1.75364 0.500001 3.3 0.500001Z" fill="#FF6262" stroke="#FF6262" stroke-linecap="round" stroke-linejoin="round"/>
</svg>
