<svg width="14" height="14" viewBox="0 0 14 14" fill="none" xmlns="http://www.w3.org/2000/svg">
<path d="M5.86288 1.47396L2.35121 3.76646C1.22538 4.50146 1.22538 6.14646 2.35121 6.88146L5.86288 9.17396C6.49288 9.58813 7.53121 9.58813 8.16121 9.17396L11.6554 6.88146C12.7754 6.14646 12.7754 4.5073 11.6554 3.7723L8.16121 1.4798C7.53121 1.0598 6.49288 1.0598 5.86288 1.47396Z" stroke="#BDBDC8" stroke-linecap="round" stroke-linejoin="round"/>
<path d="M3.28415 7.62891L3.27832 10.3647C3.27832 11.1056 3.84999 11.8989 4.54999 12.1322L6.41082 12.7506C6.73165 12.8556 7.26249 12.8556 7.58915 12.7506L9.44999 12.1322C10.15 11.8989 10.7217 11.1056 10.7217 10.3647V7.65807" stroke="#BDBDC8" stroke-linecap="round" stroke-linejoin="round"/>
<path d="M12.4834 8.75V5.25" stroke="#BDBDC8" stroke-linecap="round" stroke-linejoin="round"/>
</svg>
